<?xml version="1.0" encoding="utf-8"?>
<!-- Generator: Adobe Illustrator 24.1.3, SVG Export Plug-In . SVG Version: 6.00 Build 0)  -->
<svg version="1.1" id="Layer_1" xmlns="http://www.w3.org/2000/svg" xmlns:xlink="http://www.w3.org/1999/xlink" x="0px" y="0px"
	 viewBox="0 0 595.28 595.28" style="enable-background:new 0 0 595.28 595.28;" xml:space="preserve">
<style type="text/css">
	.st0{fill:#2BB38A;}
	.st1{fill:#21438C;}
	.st2{fill:#FFFFFF;}
</style>
<g>
	<g>
		<g>
			<path class="st0" d="M284.87,498.74c-110.19,0-199.83-90.21-199.83-201.1c0-110.89,89.64-201.11,199.83-201.11
				c33.4,0,66.46,8.47,95.63,24.49c12.34,6.78,16.89,22.35,10.15,34.78c-6.73,12.43-22.18,17.01-34.56,10.21
				c-21.7-11.92-46.33-18.22-71.22-18.22c-82.11,0-148.9,67.22-148.9,149.85c0,82.62,66.79,149.84,148.9,149.84
				s148.9-67.22,148.9-149.84c0-10.16-1.02-20.34-3.03-30.23c-2.82-13.87,6.07-27.41,19.85-30.24c13.83-2.88,27.23,6.11,30.05,19.98
				c2.69,13.27,4.06,26.89,4.06,40.5C484.71,408.53,395.07,498.74,284.87,498.74z"/>
		</g>
	</g>
	<g>
		<g>
			<path class="st0" d="M285.11,370.52l-99.06-99.3c-9.97-9.99-10-26.22-0.07-36.24c9.92-10.04,26.05-10.06,36.01-0.08l62.65,62.79
				l181.93-187.2c9.83-10.12,25.96-10.31,36.01-0.4c10.05,9.89,10.23,26.12,0.4,36.24L285.11,370.52z"/>
		</g>
	</g>
</g>
</svg>
