<?xml version="1.0" encoding="utf-8"?>
<!-- Generator: Adobe Illustrator 24.1.3, SVG Export Plug-In . SVG Version: 6.00 Build 0)  -->
<svg version="1.1" id="Layer_1" xmlns="http://www.w3.org/2000/svg" xmlns:xlink="http://www.w3.org/1999/xlink" x="0px" y="0px"
	 viewBox="0 0 595.28 283.46" style="enable-background:new 0 0 595.28 283.46;" xml:space="preserve">
<style type="text/css">
	.st0{fill:#22428D;}
	.st1{fill:#2BB38A;}
	.st2{fill:none;stroke:#52A846;stroke-width:4;stroke-miterlimit:10;}
	.st3{stroke:#52A846;stroke-width:4;stroke-miterlimit:10;}
	.st4{fill:#FFFFFF;}
</style>
<g>
	<g>
		<path class="st1" d="M49.6,175.93l-7.05,16.24h2.81l1.55-3.76h8.02l1.55,3.76h2.88l-6.98-16.24H49.6z M47.85,186.09l3.05-7.4
			l3.06,7.4H47.85z"/>
		<rect x="70.09" y="174.96" class="st1" width="2.63" height="17.22"/>
		<rect x="85.5" y="174.96" class="st1" width="2.63" height="17.22"/>
		<path class="st1" d="M124.18,180.91c-0.84-0.76-2.05-1.15-3.62-1.15c-0.78,0-1.45,0.06-2.02,0.19c-0.57,0.12-1.11,0.3-1.61,0.53
			c-0.5,0.23-1.04,0.53-1.6,0.88l1.07,1.72c0.61-0.42,1.21-0.74,1.81-0.95c0.6-0.22,1.19-0.33,1.77-0.33c0.96,0,1.68,0.22,2.17,0.67
			c0.49,0.45,0.73,1.08,0.73,1.88l0,0.42h-3.68c-1.46,0.01-2.59,0.36-3.39,1.02c-0.8,0.67-1.2,1.56-1.2,2.67
			c0,0.71,0.18,1.36,0.53,1.94c0.35,0.58,0.84,1.04,1.49,1.38c0.64,0.34,1.39,0.51,2.26,0.51c1.08,0,2.01-0.2,2.78-0.6
			c0.49-0.25,0.89-0.6,1.23-1.02l0,1.5h2.58l-0.02-8.1C125.46,182.73,125.03,181.67,124.18,180.91z M122.44,188.96
			c-0.3,0.39-0.72,0.71-1.23,0.94c-0.52,0.23-1.1,0.35-1.76,0.35c-0.73,0-1.31-0.17-1.72-0.51c-0.42-0.34-0.63-0.8-0.63-1.37
			c0-0.6,0.21-1.04,0.62-1.3c0.41-0.26,1.04-0.4,1.89-0.4h3.29l0,1.02C122.88,188.16,122.73,188.58,122.44,188.96z"/>
		<path class="st1" d="M147.71,180.55c-0.87-0.53-1.88-0.79-3.04-0.79c-1.08,0-2.01,0.25-2.8,0.74c-0.59,0.37-1.07,0.87-1.45,1.49
			v-2.14h-2.63v16.82h2.63v-6.64c0.38,0.62,0.86,1.11,1.45,1.49c0.78,0.49,1.73,0.74,2.84,0.74c1.16,0,2.16-0.26,3.03-0.79
			c0.86-0.53,1.53-1.26,2.01-2.19c0.48-0.94,0.72-2.01,0.72-3.24c0-1.25-0.24-2.35-0.73-3.29
			C149.25,181.81,148.58,181.07,147.71,180.55z M147.35,188.11c-0.31,0.62-0.75,1.11-1.3,1.46c-0.56,0.36-1.2,0.54-1.93,0.54
			c-0.71,0-1.35-0.18-1.92-0.52c-0.56-0.35-1-0.83-1.31-1.46c-0.31-0.63-0.47-1.34-0.47-2.14c0-0.81,0.16-1.51,0.47-2.12
			c0.31-0.61,0.75-1.09,1.31-1.45c0.56-0.36,1.2-0.53,1.92-0.53c0.73,0,1.37,0.18,1.93,0.53c0.55,0.36,0.99,0.84,1.3,1.46
			c0.31,0.62,0.47,1.32,0.47,2.11C147.82,186.78,147.67,187.49,147.35,188.11z"/>
		<path class="st1" d="M171.9,180.55c-0.87-0.53-1.88-0.79-3.04-0.79c-1.08,0-2.01,0.25-2.8,0.74c-0.59,0.37-1.07,0.87-1.45,1.49
			v-2.14H162v16.82h2.63v-6.64c0.38,0.62,0.86,1.11,1.45,1.49c0.78,0.49,1.73,0.74,2.84,0.74c1.16,0,2.16-0.26,3.03-0.79
			c0.86-0.53,1.53-1.26,2.01-2.19c0.48-0.94,0.72-2.01,0.72-3.24c0-1.25-0.24-2.35-0.73-3.29
			C173.45,181.81,172.77,181.07,171.9,180.55z M171.55,188.11c-0.31,0.62-0.75,1.11-1.3,1.46c-0.56,0.36-1.2,0.54-1.93,0.54
			c-0.71,0-1.35-0.18-1.92-0.52c-0.56-0.35-1-0.83-1.31-1.46c-0.31-0.63-0.47-1.34-0.47-2.14c0-0.81,0.16-1.51,0.47-2.12
			c0.31-0.61,0.75-1.09,1.31-1.45c0.56-0.36,1.2-0.53,1.92-0.53c0.73,0,1.37,0.18,1.93,0.53c0.55,0.36,0.99,0.84,1.3,1.46
			c0.31,0.62,0.47,1.32,0.47,2.11C172.02,186.78,171.86,187.49,171.55,188.11z"/>
		<path class="st1" d="M194.58,180.55c-0.95-0.53-2.05-0.79-3.3-0.79c-1.25,0-2.35,0.26-3.31,0.79c-0.96,0.53-1.71,1.26-2.24,2.19
			c-0.53,0.94-0.8,2.02-0.8,3.26c0,1.24,0.27,2.33,0.8,3.27c0.53,0.94,1.28,1.68,2.24,2.2c0.96,0.53,2.06,0.79,3.31,0.79
			c1.25,0,2.35-0.26,3.3-0.79c0.95-0.53,1.69-1.26,2.23-2.2c0.53-0.94,0.8-2.03,0.8-3.27c0-1.24-0.27-2.32-0.8-3.26
			C196.28,181.81,195.53,181.07,194.58,180.55z M194.51,188.18c-0.31,0.62-0.75,1.1-1.3,1.45c-0.55,0.35-1.2,0.52-1.93,0.52
			c-0.73,0-1.38-0.17-1.94-0.52c-0.56-0.35-1-0.83-1.31-1.45c-0.31-0.62-0.47-1.34-0.47-2.16c0-0.8,0.16-1.52,0.47-2.13
			c0.31-0.62,0.75-1.1,1.31-1.45c0.56-0.35,1.21-0.52,1.94-0.52c0.73,0,1.37,0.18,1.93,0.52c0.56,0.35,0.99,0.83,1.3,1.45
			c0.31,0.62,0.47,1.33,0.47,2.13C194.98,186.84,194.83,187.56,194.51,188.18z"/>
		<rect x="209.02" y="179.85" class="st1" width="2.6" height="12.32"/>
		<path class="st1" d="M210.32,174.77c-0.43,0-0.79,0.15-1.09,0.44c-0.3,0.29-0.44,0.67-0.44,1.11c0,0.43,0.15,0.8,0.44,1.1
			c0.3,0.3,0.66,0.45,1.09,0.45c0.44,0,0.81-0.15,1.1-0.45c0.29-0.3,0.43-0.67,0.43-1.1c0-0.45-0.14-0.82-0.43-1.11
			C211.13,174.92,210.76,174.77,210.32,174.77z"/>
		<path class="st1" d="M233.71,180.34c-0.68-0.39-1.49-0.58-2.43-0.58c-1.07,0-1.99,0.21-2.77,0.64c-0.72,0.39-1.28,1-1.7,1.82
			v-2.36h-2.63v12.32h2.63v-6.4c0.06-0.97,0.35-1.81,0.9-2.48c0.62-0.76,1.46-1.15,2.55-1.16c0.91,0,1.63,0.27,2.15,0.82
			c0.52,0.55,0.78,1.3,0.78,2.26v6.96h2.62v-7.66c0-0.99-0.18-1.84-0.54-2.54C234.91,181.27,234.39,180.73,233.71,180.34z"/>
		<path class="st1" d="M253.23,189.85c-0.3,0.09-0.58,0.14-0.85,0.14c-0.41,0-0.73-0.12-0.96-0.36c-0.23-0.24-0.34-0.69-0.34-1.36
			v-6.08h3.58v-1.9h-3.58v-3.36h-2.6v3.36h-1.71v1.9h1.71v6.54c0,0.83,0.15,1.52,0.47,2.04c0.31,0.53,0.73,0.91,1.24,1.15
			c0.52,0.24,1.08,0.36,1.69,0.36c0.52,0,1.03-0.08,1.53-0.24c0.5-0.16,0.99-0.39,1.46-0.68l-0.66-1.93
			C253.85,189.62,253.53,189.76,253.23,189.85z"/>
		<path class="st1" d="M284.18,180.34c-0.66-0.39-1.46-0.58-2.39-0.58c-1.05,0-1.96,0.21-2.73,0.64c-0.77,0.42-1.36,1.1-1.78,2.03
			c-0.04,0.1-0.08,0.21-0.12,0.32c-0.08-0.27-0.17-0.53-0.29-0.77c-0.36-0.7-0.87-1.25-1.53-1.64c-0.66-0.39-1.46-0.58-2.39-0.58
			c-1.05,0-1.96,0.21-2.73,0.64c-0.71,0.39-1.27,1.01-1.68,1.84v-2.39h-2.6v12.32h2.6v-6.08c0-1.11,0.3-2.05,0.9-2.81
			c0.6-0.76,1.43-1.15,2.48-1.18c0.9,0,1.6,0.28,2.1,0.82c0.5,0.55,0.75,1.31,0.75,2.29v6.96h2.62v-6.08c0-1.11,0.3-2.05,0.89-2.81
			c0.59-0.76,1.41-1.15,2.44-1.18c0.9,0,1.6,0.28,2.11,0.82c0.51,0.55,0.76,1.31,0.76,2.29v6.96h2.62v-7.66
			c0-0.99-0.18-1.84-0.54-2.54C285.35,181.27,284.85,180.73,284.18,180.34z"/>
		<path class="st1" d="M306.88,180.65c-0.87-0.6-2.02-0.89-3.45-0.89c-1.2,0.01-2.27,0.29-3.19,0.81c-0.93,0.53-1.65,1.26-2.17,2.19
			c-0.52,0.94-0.78,2.02-0.78,3.26c0,1.24,0.26,2.32,0.78,3.26c0.52,0.94,1.24,1.67,2.17,2.19c0.93,0.53,2.01,0.79,3.26,0.79
			c1.05,0,2-0.18,2.85-0.55c0.85-0.36,1.57-0.88,2.17-1.54l-1.39-1.42c-0.93,0.97-2.07,1.46-3.42,1.46c-0.76,0-1.43-0.18-2.02-0.53
			c-0.58-0.36-1.04-0.86-1.37-1.51c-0.18-0.35-0.3-0.74-0.38-1.16h9.18c0.11-1.49-0.02-2.77-0.39-3.85
			C308.37,182.09,307.75,181.25,306.88,180.65z M299.88,185.12c0.07-0.51,0.2-0.97,0.4-1.38c0.3-0.61,0.73-1.09,1.27-1.43
			c0.54-0.34,1.18-0.51,1.91-0.51c0.66,0,1.23,0.14,1.73,0.41c0.5,0.27,0.89,0.65,1.18,1.14c0.28,0.49,0.44,1.08,0.47,1.78H299.88z"
			/>
		<path class="st1" d="M330.07,180.34c-0.68-0.39-1.49-0.58-2.43-0.58c-1.07,0-1.99,0.21-2.77,0.64c-0.72,0.39-1.28,1-1.7,1.82
			v-2.36h-2.63v12.32h2.63v-6.4c0.06-0.97,0.35-1.81,0.9-2.48c0.62-0.76,1.46-1.15,2.55-1.16c0.91,0,1.63,0.27,2.15,0.82
			c0.52,0.55,0.78,1.3,0.78,2.26v6.96h2.62v-7.66c0-0.99-0.18-1.84-0.54-2.54C331.26,181.27,330.74,180.73,330.07,180.34z"/>
		<path class="st1" d="M349.58,189.85c-0.3,0.09-0.58,0.14-0.85,0.14c-0.41,0-0.73-0.12-0.96-0.36c-0.23-0.24-0.34-0.69-0.34-1.36
			v-6.08h3.58v-1.9h-3.58v-3.36h-2.6v3.36h-1.71v1.9h1.71v6.54c0,0.83,0.15,1.52,0.47,2.04c0.31,0.53,0.73,0.91,1.24,1.15
			c0.52,0.24,1.08,0.36,1.69,0.36c0.52,0,1.03-0.08,1.53-0.24c0.5-0.16,0.99-0.39,1.46-0.68l-0.66-1.93
			C350.2,189.62,349.88,189.76,349.58,189.85z"/>
		<path class="st1" d="M368.74,185.71c-0.49-0.27-1.02-0.49-1.56-0.66c-0.55-0.17-1.07-0.33-1.55-0.49
			c-0.49-0.15-0.89-0.34-1.2-0.57c-0.31-0.22-0.47-0.53-0.47-0.91c0-0.47,0.17-0.8,0.5-1c0.33-0.2,0.76-0.3,1.28-0.3
			c0.53,0,1.12,0.1,1.75,0.29c0.63,0.19,1.21,0.45,1.75,0.78l0.96-1.88c-0.55-0.39-1.2-0.69-1.96-0.9
			c-0.76-0.22-1.52-0.33-2.28-0.33c-0.78,0-1.5,0.12-2.18,0.36c-0.68,0.24-1.23,0.62-1.66,1.14c-0.43,0.52-0.64,1.19-0.64,2.03
			c0,0.74,0.15,1.34,0.46,1.79c0.3,0.45,0.7,0.8,1.17,1.07c0.48,0.26,0.99,0.48,1.54,0.64c0.55,0.16,1.06,0.33,1.55,0.49
			c0.49,0.16,0.88,0.37,1.19,0.62c0.3,0.25,0.46,0.59,0.46,1.02c0,0.32-0.09,0.59-0.26,0.79c-0.18,0.2-0.41,0.35-0.71,0.45
			c-0.3,0.1-0.64,0.15-1.02,0.15c-0.66,0-1.36-0.13-2.12-0.41c-0.76-0.27-1.41-0.64-1.94-1.12l-0.94,1.81
			c0.61,0.56,1.35,0.98,2.24,1.28c0.88,0.29,1.77,0.44,2.65,0.44c0.82,0,1.59-0.13,2.29-0.38c0.71-0.26,1.28-0.65,1.71-1.18
			c0.43-0.53,0.65-1.22,0.65-2.05c0-0.76-0.15-1.37-0.46-1.83C369.63,186.35,369.23,185.98,368.74,185.71z"/>
		<path class="st1" d="M382.26,189.5c-0.41,0-0.75,0.13-1.02,0.39c-0.27,0.26-0.4,0.6-0.4,1.02c0,0.37,0.13,0.7,0.4,0.98
			c0.08,0.09,0.18,0.16,0.29,0.22l-0.92,2.6h1.35l1.3-2.64c0.09-0.19,0.18-0.37,0.26-0.56c0.08-0.19,0.13-0.39,0.13-0.6
			c0-0.45-0.14-0.8-0.42-1.04C382.95,189.63,382.63,189.5,382.26,189.5z"/>
		<path class="st1" d="M418.61,180.55c-0.95-0.53-2.05-0.79-3.3-0.79c-1.25,0-2.35,0.26-3.31,0.79c-0.96,0.53-1.71,1.26-2.24,2.19
			c-0.53,0.94-0.8,2.02-0.8,3.26c0,1.24,0.27,2.33,0.8,3.27c0.53,0.94,1.28,1.68,2.24,2.2c0.96,0.53,2.06,0.79,3.31,0.79
			c1.25,0,2.35-0.26,3.3-0.79c0.95-0.53,1.69-1.26,2.23-2.2c0.53-0.94,0.8-2.03,0.8-3.27c0-1.24-0.27-2.32-0.8-3.26
			C420.31,181.81,419.56,181.07,418.61,180.55z M418.54,188.18c-0.31,0.62-0.75,1.1-1.3,1.45c-0.55,0.35-1.2,0.52-1.93,0.52
			c-0.73,0-1.38-0.17-1.94-0.52c-0.56-0.35-1-0.83-1.31-1.45c-0.31-0.62-0.47-1.34-0.47-2.16c0-0.8,0.16-1.52,0.47-2.13
			c0.31-0.62,0.75-1.1,1.31-1.45c0.56-0.35,1.21-0.52,1.94-0.52c0.73,0,1.37,0.18,1.93,0.52c0.56,0.35,0.99,0.83,1.3,1.45
			c0.31,0.62,0.47,1.33,0.47,2.13C419.01,186.84,418.86,187.56,418.54,188.18z"/>
		<path class="st1" d="M442.58,180.34c-0.68-0.39-1.49-0.58-2.43-0.58c-1.07,0-1.99,0.21-2.77,0.64c-0.72,0.39-1.28,1-1.7,1.82
			v-2.36h-2.63v12.32h2.63v-6.4c0.06-0.97,0.35-1.81,0.9-2.48c0.62-0.76,1.46-1.15,2.55-1.16c0.91,0,1.63,0.27,2.15,0.82
			c0.52,0.55,0.78,1.3,0.78,2.26v6.96h2.62v-7.66c0-0.99-0.18-1.84-0.54-2.54C443.78,181.27,443.26,180.73,442.58,180.34z"/>
		<path class="st1" d="M465.31,180.65c-0.87-0.6-2.02-0.89-3.45-0.89c-1.2,0.01-2.27,0.29-3.19,0.81c-0.93,0.53-1.65,1.26-2.17,2.19
			c-0.52,0.94-0.78,2.02-0.78,3.26c0,1.24,0.26,2.32,0.78,3.26c0.52,0.94,1.24,1.67,2.17,2.19c0.93,0.53,2.01,0.79,3.26,0.79
			c1.05,0,2-0.18,2.85-0.55c0.85-0.36,1.57-0.88,2.17-1.54l-1.39-1.42c-0.93,0.97-2.07,1.46-3.42,1.46c-0.76,0-1.43-0.18-2.02-0.53
			c-0.58-0.36-1.04-0.86-1.37-1.51c-0.18-0.35-0.3-0.74-0.38-1.16h9.18c0.11-1.49-0.02-2.77-0.39-3.85
			C466.79,182.09,466.17,181.25,465.31,180.65z M458.31,185.12c0.07-0.51,0.2-0.97,0.4-1.38c0.3-0.61,0.73-1.09,1.27-1.43
			c0.54-0.34,1.18-0.51,1.91-0.51c0.66,0,1.23,0.14,1.73,0.41c0.5,0.27,0.89,0.65,1.18,1.14c0.28,0.49,0.44,1.08,0.47,1.78H458.31z"
			/>
		<path class="st1" d="M496.42,182.31v-2.46h-2.63v12.32h2.63v-6.41c0.05-0.62,0.21-1.19,0.49-1.69c0.34-0.62,0.83-1.1,1.46-1.45
			c0.63-0.35,1.38-0.5,2.25-0.45v-2.41c-1.02,0-1.9,0.24-2.65,0.73C497.32,180.92,496.81,181.53,496.42,182.31z"/>
		<path class="st1" d="M519.97,180.55c-0.95-0.53-2.05-0.79-3.3-0.79c-1.25,0-2.35,0.26-3.31,0.79c-0.96,0.53-1.71,1.26-2.24,2.19
			c-0.53,0.94-0.8,2.02-0.8,3.26c0,1.24,0.27,2.33,0.8,3.27c0.53,0.94,1.28,1.68,2.24,2.2c0.96,0.53,2.06,0.79,3.31,0.79
			c1.25,0,2.35-0.26,3.3-0.79c0.95-0.53,1.69-1.26,2.23-2.2c0.53-0.94,0.8-2.03,0.8-3.27c0-1.24-0.27-2.32-0.8-3.26
			C521.66,181.81,520.92,181.07,519.97,180.55z M519.9,188.18c-0.31,0.62-0.75,1.1-1.3,1.45c-0.55,0.35-1.2,0.52-1.93,0.52
			c-0.73,0-1.38-0.17-1.94-0.52c-0.56-0.35-1-0.83-1.31-1.45c-0.31-0.62-0.47-1.34-0.47-2.16c0-0.8,0.16-1.52,0.47-2.13
			c0.31-0.62,0.75-1.1,1.31-1.45c0.56-0.35,1.21-0.52,1.94-0.52c0.73,0,1.37,0.18,1.93,0.52c0.56,0.35,0.99,0.83,1.3,1.45
			c0.31,0.62,0.47,1.33,0.47,2.13C520.37,186.84,520.21,187.56,519.9,188.18z"/>
		<rect x="534.52" y="174.96" class="st1" width="2.63" height="17.22"/>
		<rect x="549.93" y="174.96" class="st1" width="2.63" height="17.22"/>
	</g>
	<g>
		<polygon class="st0" points="79.39,100.05 71.16,100.05 42.52,165.49 53.55,165.49 75.33,119.48 97.06,165.49 107.74,165.49 		"/>
	</g>
	<g>
		<path class="st0" d="M199.59,100.05c-8.85,0-17.48,4.18-22.07,11.91c-2.83,4.76-3.77,10.54-3.68,16.01
			c0.07,4.07-0.01,8.15-0.01,12.22c0,5.39,0,10.79,0,16.18c0,3.6,0,8.79,0,9.13h9.04v-20.56c1.89,1.76,3.92,3.18,6.08,4.23
			c3.28,1.59,6.92,2.4,10.8,2.4c6.9,0,12.89-2.55,17.79-7.57c4.89-5.01,7.38-11.17,7.38-18.31c0-7.03-2.5-13.12-7.42-18.11
			C212.57,102.58,206.54,100.05,199.59,100.05z M215.8,125.89c0,2.96-0.77,5.84-2.3,8.57c-1.51,2.71-3.58,4.84-6.13,6.33
			c-5.17,3.01-11.41,2.94-16.66-0.01c-2.64-1.49-4.69-3.53-6.11-6.07c-1.43-2.56-2.15-5.47-2.15-8.65c0-4.96,1.58-8.97,4.83-12.28
			c3.24-3.3,7.1-4.9,11.8-4.9c3.03,0,5.84,0.75,8.37,2.24c2.53,1.49,4.57,3.58,6.08,6.24C215.03,120,215.8,122.88,215.8,125.89z"/>
	</g>
	<g>
		<path class="st0" d="M142.11,100.05c-8.85,0-17.48,4.18-22.07,11.91c-2.83,4.76-3.77,10.54-3.68,16.01
			c0.07,4.07-0.01,8.15-0.01,12.22c0,5.39,0,10.79,0,16.18c0,3.6,0,8.79,0,9.13h9.04v-20.56c1.89,1.76,3.92,3.18,6.08,4.23
			c3.28,1.59,6.92,2.4,10.8,2.4c6.9,0,12.89-2.55,17.79-7.57c4.89-5.01,7.38-11.17,7.38-18.31c0-7.03-2.5-13.12-7.42-18.11
			C155.1,102.58,149.07,100.05,142.11,100.05z M158.32,125.89c0,2.96-0.77,5.84-2.3,8.57c-1.51,2.71-3.58,4.84-6.13,6.33
			c-5.17,3.01-11.41,2.94-16.66-0.01c-2.64-1.49-4.69-3.53-6.11-6.07c-1.43-2.56-2.15-5.47-2.15-8.65c0-4.96,1.58-8.97,4.83-12.28
			c3.24-3.3,7.1-4.9,11.8-4.9c3.03,0,5.84,0.75,8.37,2.24c2.53,1.49,4.57,3.58,6.08,6.24C157.56,120,158.32,122.88,158.32,125.89z"
			/>
	</g>
	<g>
		<path class="st1" d="M311.51,86.79c-1.77,0-3.3,0.63-4.56,1.89c-1.25,1.25-1.89,2.79-1.89,4.56c0,1.77,0.63,3.31,1.88,4.57
			c1.25,1.27,2.79,1.92,4.57,1.92c1.77,0,3.31-0.64,4.58-1.91c1.27-1.27,1.91-2.81,1.91-4.58c0-1.78-0.65-3.31-1.92-4.57
			C314.82,87.42,313.28,86.79,311.51,86.79z"/>
	</g>
	<g>
		<rect x="306.99" y="108.88" class="st0" width="9.08" height="56.61"/>
	</g>
	<g>
		<path class="st0" d="M396.64,157.02l-0.62-1.73l-1.62,0.87c-2.41,1.3-4.7,1.43-6.99,0.41c-2.91-2.29-4.26-5.46-4.11-9.76v-17.89
			h10.91v-8.24h-10.95v-20.63h-9.12v47.74c-0.06,3.63,0.79,7.01,2.53,10.06c2.9,4.91,6.94,7.54,12.05,7.83
			c0.18,0.01,0.35,0.01,0.53,0.01c2.48,0,5.27-0.59,8.31-1.75l1.51-0.57l-0.61-1.5C398,160.71,397.39,159.09,396.64,157.02z"/>
	</g>
	<g>
		<g>
			<path class="st0" d="M451.84,134.36c3.26-1.45,5.8-3.61,7.56-6.42c1.75-2.79,2.63-6.08,2.63-9.78c0-4.42-1.3-8.21-3.85-11.27
				c-2.54-3.04-5.87-5.05-9.88-5.96c-2.6-0.59-7.32-0.88-14.41-0.88h-13.96v65.4h9.37v-28.96h5.64l17.84,28.96h11.35l-18-29.22
				C447.87,135.9,449.78,135.28,451.84,134.36z M450.96,123.15c-0.93,1.46-2.2,2.49-3.9,3.15c-1.8,0.71-4.71,1.07-8.62,1.07
				l-9.13-0.07v-18h9.37c5.05,0,7.44,0.54,8.55,0.99c1.53,0.63,2.75,1.64,3.71,3.08c0.97,1.45,1.44,3.02,1.44,4.79
				C452.37,120.03,451.9,121.66,450.96,123.15z"/>
		</g>
		<g>
			<path class="st0" d="M493.01,114.06c-7.51,0-13.83,2.77-18.8,8.25c-4.47,4.98-6.74,10.92-6.74,17.68
				c0,6.79,2.39,12.81,7.12,17.89c4.75,5.11,10.95,7.7,18.43,7.7c7.45,0,13.64-2.59,18.4-7.7c4.74-5.08,7.14-11.1,7.14-17.89
				c0-6.78-2.27-12.74-6.75-17.73C506.84,116.82,500.51,114.06,493.01,114.06z M501.27,154.71c-2.47,1.41-5.25,2.12-8.26,2.12
				c-2.95,0-5.71-0.71-8.2-2.12c-2.47-1.4-4.46-3.44-5.92-6.07c-1.47-2.64-2.21-5.53-2.21-8.57c0-4.76,1.58-8.71,4.84-12.08
				c3.24-3.35,7-4.97,11.5-4.97c4.49,0,8.25,1.63,11.49,4.97c3.26,3.36,4.84,7.31,4.84,12.08c0,3.04-0.74,5.93-2.2,8.57
				C505.7,151.27,503.73,153.31,501.27,154.71z"/>
		</g>
		<g>
			<rect x="526.34" y="100.05" class="st0" width="9.12" height="65.48"/>
		</g>
		<g>
			<rect x="543.63" y="100.05" class="st0" width="9.12" height="65.48"/>
		</g>
	</g>
	<g>
		<g>
			<g>
				<path class="st1" d="M263.33,165.49c-17.93,0-32.51-14.68-32.51-32.72c0-18.04,14.59-32.72,32.51-32.72
					c5.43,0,10.81,1.38,15.56,3.98c2.01,1.1,2.75,3.64,1.65,5.66c-1.1,2.02-3.61,2.77-5.62,1.66c-3.53-1.94-7.54-2.96-11.59-2.96
					c-13.36,0-24.23,10.94-24.23,24.38c0,13.44,10.87,24.38,24.23,24.38c13.36,0,24.23-10.94,24.23-24.38
					c0-1.65-0.17-3.31-0.49-4.92c-0.46-2.26,0.99-4.46,3.23-4.92c2.25-0.47,4.43,0.99,4.89,3.25c0.44,2.16,0.66,4.38,0.66,6.59
					C295.85,150.81,281.26,165.49,263.33,165.49z"/>
			</g>
		</g>
		<g>
			<g>
				<path class="st1" d="M263.37,144.63l-16.12-16.16c-1.62-1.62-1.63-4.27-0.01-5.9c1.61-1.63,4.24-1.64,5.86-0.01l10.19,10.22
					l29.6-30.46c1.6-1.65,4.22-1.68,5.86-0.07c1.64,1.61,1.67,4.25,0.06,5.9L263.37,144.63z"/>
			</g>
		</g>
	</g>
	<g>
		<g>
			<path class="st0" d="M367.6,165.49h-9.49V133.3c0-6.97-5.67-12.64-12.64-12.64c-6.97,0-12.64,5.67-12.64,12.64v32.19h-9.49V133.3
				c0-12.2,9.93-22.13,22.13-22.13s22.13,9.93,22.13,22.13V165.49z"/>
		</g>
	</g>
</g>
</svg>
