<svg width="48" height="65" viewBox="0 0 48 65" fill="none" xmlns="http://www.w3.org/2000/svg">
<path d="M15.8948 64.1372H31.8248C32.9293 64.1372 33.8248 63.2418 33.8248 62.1372V61.0781C33.8248 57.7644 31.1385 55.0781 27.8248 55.0781H19.8948C16.5811 55.0781 13.8948 57.7644 13.8948 61.0781V62.1372C13.8948 63.2418 14.7902 64.1372 15.8948 64.1372Z" fill="#B5A7F9"/>
<ellipse cx="6.03939" cy="6.03939" rx="6.03939" ry="6.03939" transform="matrix(-1 0 0 1 30.2011 41)" fill="#B5A7F9"/>
<path d="M19.8948 29.6152L23.5185 34.2381L27.3948 29.6152" stroke="#7355DA" stroke-width="1.5" stroke-linecap="round" stroke-linejoin="round"/>
<path d="M23.5185 23.2617V34.2376" stroke="#7355DA" stroke-width="1.5" stroke-linecap="round"/>
<path d="M1.57899 22.9994H12.3158C13.1879 22.9994 13.8948 22.2925 13.8948 21.4204C13.8948 18.8043 11.774 16.6836 9.15794 16.6836H4.73688C2.1208 16.6836 3.8147e-05 18.8043 3.8147e-05 21.4204C3.8147e-05 22.2925 0.706957 22.9994 1.57899 22.9994Z" fill="#7355DA"/>
<ellipse cx="4.21053" cy="4.21053" rx="4.21053" ry="4.21053" transform="matrix(-1 0 0 1 11.3685 7)" fill="#7355DA"/>
<path d="M18.579 15.9994H29.3159C30.1879 15.9994 30.8948 15.2925 30.8948 14.4204C30.8948 11.8043 28.7741 9.68359 26.158 9.68359H21.7369C19.1209 9.68359 17.0001 11.8043 17.0001 14.4204C17.0001 15.2925 17.707 15.9994 18.579 15.9994Z" fill="#7355DA"/>
<circle cx="4.21053" cy="4.21053" r="4.21053" transform="matrix(-1 0 0 1 28.3685 0)" fill="#7355DA"/>
<path d="M35.5792 22.9993H46.3159C47.1879 22.9993 47.8948 22.2924 47.8948 21.4204C47.8948 18.8043 45.7741 16.6836 43.158 16.6836H38.737C36.121 16.6836 34.0003 18.8043 34.0003 21.4204C34.0003 22.2924 34.7072 22.9993 35.5792 22.9993Z" fill="#7355DA"/>
<circle cx="4.21045" cy="4.21045" r="4.21045" transform="matrix(-1 0 0 1 45.3685 7)" fill="#7355DA"/>
</svg>
