<svg xmlns="http://www.w3.org/2000/svg" xmlns:xlink="http://www.w3.org/1999/xlink" width="693.312" height="346.85" viewBox="0 0 693.312 346.85">
  <defs>
    <linearGradient id="linear-gradient" x1="0.081" y1="-0.324" x2="0.797" y2="1.551" gradientUnits="objectBoundingBox">
      <stop offset="0" stop-color="#a04b69"/>
      <stop offset="0.493" stop-color="#6235ab"/>
      <stop offset="1" stop-color="#974a77"/>
    </linearGradient>
    <linearGradient id="linear-gradient-4" x1="0.919" y1="-0.324" x2="0.203" y2="1.551" xlink:href="#linear-gradient"/>
    <linearGradient id="linear-gradient-5" x1="0.081" y1="1.324" x2="0.797" y2="-0.551" xlink:href="#linear-gradient"/>
    <linearGradient id="linear-gradient-6" x1="0.919" y1="1.324" x2="0.203" y2="-0.551" xlink:href="#linear-gradient"/>
    <linearGradient id="linear-gradient-7" x1="0.5" y1="0.271" x2="0.797" y2="1.551" xlink:href="#linear-gradient"/>
    <linearGradient id="linear-gradient-8" x1="0.5" y1="0.271" x2="0.203" y2="1.551" xlink:href="#linear-gradient"/>
  </defs>
  <g id="Group_34499" data-name="Group 34499" transform="translate(-756.5 -11557.67)">
    <g id="Group_34498" data-name="Group 34498" transform="translate(-11.5 7228)">
      <path id="Path_145859" data-name="Path 145859" d="M5,1A4,4,0,0,0,1,5V19.52a4,4,0,0,0,4,4H164.38a4,4,0,0,0,4-4V5a4,4,0,0,0-4-4H5M5,0H164.38a5,5,0,0,1,5,5V19.52a5,5,0,0,1-5,5H5a5,5,0,0,1-5-5V5A5,5,0,0,1,5,0Z" transform="translate(768 4652)" fill="url(#linear-gradient)"/>
      <path id="Path_145859-2" data-name="Path 145859" d="M4.673,1A3.88,3.88,0,0,0,.935,5V19.52a3.88,3.88,0,0,0,3.739,4H153.638a3.88,3.88,0,0,0,3.739-4V5a3.88,3.88,0,0,0-3.739-4H4.673m0-1H153.638a4.845,4.845,0,0,1,4.673,5V19.52a4.845,4.845,0,0,1-4.673,5H4.673A4.845,4.845,0,0,1,0,19.52V5A4.845,4.845,0,0,1,4.673,0Z" transform="translate(1303 4652)" fill="url(#linear-gradient)"/>
      <path id="Path_145838" data-name="Path 145838" d="M172,118.846H69.042a28.374,28.374,0,0,1-28.4-28.4V30.207A28.865,28.865,0,0,0,32.163,9.731,28.862,28.862,0,0,0,11.688,1.25H-30V-.25H11.688a30.489,30.489,0,0,1,28.062,18.6,30.269,30.269,0,0,1,2.394,11.855V90.449a26.875,26.875,0,0,0,26.9,26.9H172Z" transform="translate(909.5 4360.67)" fill="url(#linear-gradient)"/>
      <path id="Path_145838-2" data-name="Path 145838" d="M-30,118.846H72.958a28.374,28.374,0,0,0,28.4-28.4V30.207A28.931,28.931,0,0,1,130.313,1.25H172V-.25H130.313A30.432,30.432,0,0,0,99.856,30.207V90.449a26.875,26.875,0,0,1-26.9,26.9H-30Z" transform="translate(1177.5 4360.67)" fill="url(#linear-gradient-4)"/>
      <path id="Path_145838-3" data-name="Path 145838" d="M172-.25H69.042a28.374,28.374,0,0,0-28.4,28.4V88.388a28.865,28.865,0,0,1-8.481,20.476,28.862,28.862,0,0,1-20.475,8.481H-30v1.5H11.688a30.489,30.489,0,0,0,28.062-18.6,30.269,30.269,0,0,0,2.394-11.855V28.147a26.875,26.875,0,0,1,26.9-26.9H172Z" transform="translate(909.5 4493.67)" fill="url(#linear-gradient-5)"/>
      <path id="Path_145838-4" data-name="Path 145838" d="M-30-.25H72.958a28.374,28.374,0,0,1,28.4,28.4V88.388a28.931,28.931,0,0,0,28.956,28.957H172v1.5H130.313A30.432,30.432,0,0,1,99.856,88.388V28.147a26.875,26.875,0,0,0-26.9-26.9H-30Z" transform="translate(1177.5 4493.67)" fill="url(#linear-gradient-6)"/>
      <g id="Group_33513" data-name="Group 33513" transform="translate(50 9.516)">
        <circle id="Ellipse_8800" data-name="Ellipse 8800" cx="5" cy="5" r="5" transform="translate(851 4346)" fill="#fff"/>
        <circle id="Ellipse_8799" data-name="Ellipse 8799" cx="4" cy="4" r="4" transform="translate(852 4347)" fill="url(#linear-gradient-7)"/>
      </g>
      <g id="Group_33527" data-name="Group 33527" transform="translate(1318 4355.516)">
        <circle id="Ellipse_8800-2" data-name="Ellipse 8800" cx="5" cy="5" r="5" fill="#fff"/>
        <circle id="Ellipse_8799-2" data-name="Ellipse 8799" cx="4" cy="4" r="4" transform="translate(1 1)" fill="url(#linear-gradient-8)"/>
      </g>
      <g id="Group_33514" data-name="Group 33514" transform="translate(95 199.516)">
        <circle id="Ellipse_8800-3" data-name="Ellipse 8800" cx="5" cy="5" r="5" transform="translate(851 4346)" fill="#fff"/>
        <circle id="Ellipse_8799-3" data-name="Ellipse 8799" cx="4" cy="4" r="4" transform="translate(852 4347)" fill="url(#linear-gradient-7)"/>
      </g>
      <g id="Group_33541" data-name="Group 33541" transform="translate(159 143.516)">
        <circle id="Ellipse_8800-4" data-name="Ellipse 8800" cx="5" cy="5" r="5" transform="translate(851 4346)" fill="#fff"/>
        <circle id="Ellipse_8799-4" data-name="Ellipse 8799" cx="4" cy="4" r="4" transform="translate(852 4347)" fill="url(#linear-gradient-7)"/>
      </g>
      <g id="Group_33542" data-name="Group 33542" transform="translate(94 69.26)">
        <circle id="Ellipse_8800-5" data-name="Ellipse 8800" cx="5" cy="5" r="5" transform="translate(851 4346)" fill="#fff"/>
        <circle id="Ellipse_8799-5" data-name="Ellipse 8799" cx="4" cy="4" r="4" transform="translate(852 4347)" fill="url(#linear-gradient-7)"/>
      </g>
      <g id="Group_33543" data-name="Group 33543" transform="translate(422 69.26)">
        <circle id="Ellipse_8800-6" data-name="Ellipse 8800" cx="5" cy="5" r="5" transform="translate(851 4346)" fill="#fff"/>
        <circle id="Ellipse_8799-6" data-name="Ellipse 8799" cx="4" cy="4" r="4" transform="translate(852 4347)" fill="url(#linear-gradient-7)"/>
      </g>
      <g id="Group_33530" data-name="Group 33530" transform="translate(1273 4545.516)">
        <circle id="Ellipse_8800-7" data-name="Ellipse 8800" cx="5" cy="5" r="5" fill="#fff"/>
        <circle id="Ellipse_8799-7" data-name="Ellipse 8799" cx="4" cy="4" r="4" transform="translate(1 1)" fill="url(#linear-gradient-8)"/>
      </g>
      <circle id="Ellipse_8801" data-name="Ellipse 8801" cx="30" cy="30" r="30" transform="translate(820.5 4330.42)" stroke="#c96fff" stroke-width="1.5" fill="url(#linear-gradient)"/>
      <circle id="Ellipse_8805" data-name="Ellipse 8805" cx="30" cy="30" r="30" transform="translate(1348.5 4330.5)" stroke="#c96fff" stroke-width="1.5" fill="url(#linear-gradient-4)"/>
      <circle id="Ellipse_8802" data-name="Ellipse 8802" cx="30" cy="30" r="30" transform="translate(822.5 4575.516)" stroke="#c96fff" stroke-width="1.5" fill="url(#linear-gradient)"/>
      <circle id="Ellipse_8806" data-name="Ellipse 8806" cx="30" cy="30" r="30" transform="translate(1346.5 4575.516)" stroke="#c96fff" stroke-width="1.5" fill="url(#linear-gradient-4)"/>
      <circle id="Ellipse_8797" data-name="Ellipse 8797" cx="102" cy="102" r="102" transform="translate(1015.5 4382.766)" fill="#593d77" opacity="0.179"/>
      <circle id="Ellipse_8798" data-name="Ellipse 8798" cx="83" cy="83" r="83" transform="translate(1034.5 4401.766)" fill="#a163c6" opacity="0.22"/>
      <circle id="Ellipse_8796" data-name="Ellipse 8796" cx="66" cy="66" r="66" transform="translate(1051.5 4418.766)" stroke="#c96fff" stroke-width="3.5" fill="url(#linear-gradient)"/>
      <g id="Group_33520" data-name="Group 33520" transform="translate(832.708 4343.467)">
        <g id="Group_33521" data-name="Group 33521" transform="translate(0.695 0.695)">
          <path id="Path_145851" data-name="Path 145851" d="M30.059,21.4h2.475a3.67,3.67,0,0,1,3.659,3.659V46.778a4.241,4.241,0,0,1-4.241,4.241H7.659A3.67,3.67,0,0,1,4,47.36V25.06A3.67,3.67,0,0,1,7.659,21.4H9.752" transform="translate(-4 -18.748)" fill="none" stroke="#fff" stroke-linecap="round" stroke-linejoin="round" stroke-width="1.5"/>
          <line id="Line_1107" data-name="Line 1107" x2="11.705" transform="translate(10.234 2.653)" fill="none" stroke="#fff" stroke-linecap="round" stroke-linejoin="round" stroke-width="1.5"/>
          <line id="Line_1108" data-name="Line 1108" x2="32.193" transform="translate(0 10.637)" fill="none" stroke="#fff" stroke-linecap="round" stroke-linejoin="round" stroke-width="1.5"/>
          <path id="Path_145852" data-name="Path 145852" d="M44.1,9.228V4.85c0-1.133,4.121-1.133,4.121,0V9.228C48.219,10.362,44.1,10.362,44.1,9.228Z" transform="translate(-37.985 -4)" fill="none" stroke="#fff" stroke-linecap="round" stroke-linejoin="round" stroke-width="1.5"/>
          <path id="Path_145853" data-name="Path 145853" d="M147.906,9.228V4.85c0-1.133,4.121-1.133,4.121,0V9.228C152.027,10.362,147.906,10.362,147.906,9.228Z" transform="translate(-125.967 -4)" fill="none" stroke="#fff" stroke-linecap="round" stroke-linejoin="round" stroke-width="1.5"/>
          <path id="Path_145854" data-name="Path 145854" d="M44.9,104.15H42.317v-2.584H44.9Zm0-3.8H42.317a1.22,1.22,0,0,0-1.22,1.22v2.584a1.219,1.219,0,0,0,1.22,1.22H44.9a1.22,1.22,0,0,0,1.22-1.22v-2.584a1.22,1.22,0,0,0-1.22-1.22" transform="translate(-35.442 -85.658)" fill="#fff"/>
          <path id="Path_145855" data-name="Path 145855" d="M95.941,104.15H93.357v-2.584h2.584Zm0-3.8H93.357a1.22,1.22,0,0,0-1.22,1.22v2.584a1.219,1.219,0,0,0,1.22,1.22h2.584a1.22,1.22,0,0,0,1.22-1.22v-2.584a1.22,1.22,0,0,0-1.22-1.22" transform="translate(-78.7 -85.658)" fill="#fff"/>
          <path id="Path_145856" data-name="Path 145856" d="M44.9,155.19H42.317v-2.584H44.9Zm0-3.8H42.317a1.22,1.22,0,0,0-1.22,1.22v2.584a1.219,1.219,0,0,0,1.22,1.22H44.9a1.22,1.22,0,0,0,1.22-1.22v-2.584a1.22,1.22,0,0,0-1.22-1.22" transform="translate(-35.442 -128.917)" fill="#fff"/>
          <path id="Path_145857" data-name="Path 145857" d="M95.941,155.19H93.357v-2.584h2.584Zm0-3.8H93.357a1.22,1.22,0,0,0-1.22,1.22v2.584a1.219,1.219,0,0,0,1.22,1.22h2.584a1.22,1.22,0,0,0,1.22-1.22v-2.584a1.22,1.22,0,0,0-1.22-1.22" transform="translate(-78.7 -128.917)" fill="#fff"/>
          <path id="Path_145858" data-name="Path 145858" d="M144.789,104.15H142.2v-2.584h2.584Zm0-3.8H142.2a1.22,1.22,0,0,0-1.22,1.22v2.584a1.219,1.219,0,0,0,1.22,1.22h2.584a1.22,1.22,0,0,0,1.22-1.22v-2.584a1.22,1.22,0,0,0-1.22-1.22" transform="translate(-120.102 -85.658)" fill="#fff"/>
        </g>
      </g>
      <g id="Group_33522" data-name="Group 33522" transform="translate(20)">
        <path id="Path_145859-3" data-name="Path 145859" d="M5.342,1.168a4.49,4.49,0,0,0-4.274,4.67V18.682a4.49,4.49,0,0,0,4.274,4.67H86.576a4.49,4.49,0,0,0,4.274-4.67V5.838a4.49,4.49,0,0,0-4.274-4.67H5.342M5.342,0H86.576a5.607,5.607,0,0,1,5.342,5.838V18.682a5.607,5.607,0,0,1-5.342,5.838H5.342A5.607,5.607,0,0,1,0,18.682V5.838A5.607,5.607,0,0,1,5.342,0Z" transform="translate(785 4413)" fill="url(#linear-gradient)"/>
        <path id="Path_146627" data-name="Path 146627" d="M-24.51-3.494A3.872,3.872,0,0,1-27.93-.93c-2.542,0-3.809-2.036-3.809-4.438,0-2.249,1.113-4.475,3.706-4.475a3.562,3.562,0,0,1,3.347,2.4l1.062-.461a4.739,4.739,0,0,0-4.424-2.974c-3.076,0-5.039,2.527-5.039,5.464,0,3.171,1.809,5.544,5.127,5.544a4.927,4.927,0,0,0,4.438-3.193ZM-17.043,0H-15.8V-5.142a2.753,2.753,0,0,0-3.01-2.842,3.211,3.211,0,0,0-3.105,1.941l1.062.461a2.067,2.067,0,0,1,1.963-1.362c1.545,0,1.846.938,1.846,2.285v.051h-.278c-1.758,0-4.775.044-4.775,2.446A2.318,2.318,0,0,0-19.519.132,3.063,3.063,0,0,0-17.043-.989Zm0-3.721v.974a2.14,2.14,0,0,1-2.373,1.89c-.842,0-1.436-.359-1.436-1.318,0-1.377,1.707-1.545,2.732-1.545ZM-13.216,0h1.26V-11.9l-1.26.557Zm9.225-2.285A2.429,2.429,0,0,1-6.1-.908,2.467,2.467,0,0,1-8.613-3.677H-2.7c0-2.344-.894-4.307-3.53-4.307C-8.5-7.983-9.9-6.123-9.9-3.9A3.752,3.752,0,0,0-6.108.132,3.568,3.568,0,0,0-2.834-1.794Zm-4.578-2.4A2.378,2.378,0,0,1-6.233-6.943,2.1,2.1,0,0,1-3.992-4.68ZM-.714,0H.531V-4.753A2.061,2.061,0,0,1,2.787-6.9c1.289,0,1.926.747,1.926,2.073V0H5.958V-4.739c0-1.86-.923-3.245-2.878-3.245A2.7,2.7,0,0,0,.531-6.6V-7.844H-.714ZM14.3,0h1.245V-11.4H14.3v4.812a3.111,3.111,0,0,0-2.739-1.4c-2.3,0-3.64,1.919-3.64,4.094,0,2.212,1.165,4.021,3.538,4.021A3.526,3.526,0,0,0,14.3-1.355ZM11.638-.908c-1.663,0-2.432-1.428-2.432-2.922,0-1.663.659-3.113,2.556-3.113,1.78,0,2.578,1.282,2.578,2.944C14.341-2.278,13.484-.908,11.638-.908ZM22.569,0h1.245V-5.142A2.753,2.753,0,0,0,20.8-7.983,3.211,3.211,0,0,0,17.7-6.042l1.062.461a2.067,2.067,0,0,1,1.963-1.362c1.545,0,1.846.938,1.846,2.285v.051h-.278c-1.758,0-4.775.044-4.775,2.446A2.318,2.318,0,0,0,20.094.132,3.063,3.063,0,0,0,22.569-.989Zm0-3.721v.974A2.14,2.14,0,0,1,20.2-.857c-.842,0-1.436-.359-1.436-1.318,0-1.377,1.707-1.545,2.732-1.545ZM26.359,0H27.6V-4.307c0-1.787.857-2.446,2.578-2.5V-7.983A2.775,2.775,0,0,0,27.6-6.438V-7.844H26.359Z" transform="translate(832 4431)" fill="#fff"/>
      </g>
      <g id="Group_33529" data-name="Group 33529" transform="translate(1332.082 4413)">
        <g id="Group_33539" data-name="Group 33539">
          <path id="Path_145859-4" data-name="Path 145859" d="M86.576,1.168a4.49,4.49,0,0,1,4.274,4.67V18.682a4.49,4.49,0,0,1-4.274,4.67H5.342a4.49,4.49,0,0,1-4.274-4.67V5.838a4.49,4.49,0,0,1,4.274-4.67H86.576m0-1.168H5.342A5.607,5.607,0,0,0,0,5.838V18.682A5.607,5.607,0,0,0,5.342,24.52H86.576a5.607,5.607,0,0,0,5.342-5.838V5.838A5.607,5.607,0,0,0,86.576,0Z" transform="translate(-0.082)" fill="url(#linear-gradient-4)"/>
          <path id="Path_146630" data-name="Path 146630" d="M-33.367,0h1.3V-4.365l.93.015c2.373,0,4.863-.271,4.863-3.12,0-2.336-1.677-3.252-3.75-3.252h-3.347Zm1.3-5.4V-9.675h2.131c1.443,0,2.358.535,2.358,2.109,0,1.531-.872,2.168-2.358,2.168ZM-19.96,0h1.245V-5.142a2.753,2.753,0,0,0-3.01-2.842,3.211,3.211,0,0,0-3.105,1.941l1.062.461a2.067,2.067,0,0,1,1.963-1.362c1.545,0,1.846.938,1.846,2.285v.051h-.278c-1.758,0-4.775.044-4.775,2.446A2.318,2.318,0,0,0-22.436.132,3.063,3.063,0,0,0-19.96-.989Zm0-3.721v.974a2.14,2.14,0,0,1-2.373,1.89c-.842,0-1.436-.359-1.436-1.318,0-1.377,1.707-1.545,2.732-1.545Zm4.339,6.453h1.26l4.336-10.576H-11.3l-2.175,5.625-2.358-5.625h-1.333l3.032,7.031ZM-8.293,0h1.245V-4.8A1.936,1.936,0,0,1-5.129-6.9a1.7,1.7,0,0,1,1.89,1.948V0h1.245V-4.8A1.936,1.936,0,0,1-.075-6.9a1.7,1.7,0,0,1,1.89,1.948V0H3.06V-4.863c0-1.78-1-3.12-2.827-3.12A2.757,2.757,0,0,0-2.338-6.511,2.66,2.66,0,0,0-4.865-7.983a2.253,2.253,0,0,0-2.183,1.34v-1.2H-8.293ZM10.929-2.285A2.429,2.429,0,0,1,8.82-.908,2.467,2.467,0,0,1,6.308-3.677h5.911c0-2.344-.894-4.307-3.53-4.307-2.263,0-3.669,1.86-3.669,4.08A3.752,3.752,0,0,0,8.813.132a3.568,3.568,0,0,0,3.274-1.926ZM6.352-4.68A2.378,2.378,0,0,1,8.688-6.943,2.1,2.1,0,0,1,10.929-4.68ZM14.207,0h1.245V-4.753A2.061,2.061,0,0,1,17.708-6.9c1.289,0,1.926.747,1.926,2.073V0h1.245V-4.739c0-1.86-.923-3.245-2.878-3.245A2.7,2.7,0,0,0,15.452-6.6V-7.844H14.207ZM26.874-1.113a2.82,2.82,0,0,1-.908.168c-.784,0-1.025-.476-1.025-1.143V-6.8h1.831V-7.844H24.94V-9.858L23.7-9.316v1.472H22.567V-6.8H23.7v4.834A1.849,1.849,0,0,0,25.8.1a3.551,3.551,0,0,0,1.077-.161Zm1.329-.8A2.975,2.975,0,0,0,31.213.132c1.479,0,2.886-.754,2.886-2.439,0-1.648-1.34-1.926-2.549-2.183-1-.212-1.9-.41-1.9-1.318,0-.806.71-1.135,1.414-1.135a2.01,2.01,0,0,1,1.86,1.172l.959-.425a3.117,3.117,0,0,0-2.776-1.787A2.414,2.414,0,0,0,28.5-5.771c0,1.626,1.311,1.941,2.5,2.227,1,.242,1.912.461,1.912,1.406s-.9,1.23-1.758,1.23a2,2,0,0,1-1.992-1.421Z" transform="translate(45.918 18)" fill="#fff"/>
        </g>
      </g>
      <path id="Path_146628" data-name="Path 146628" d="M-64.221,0h1.56L-59-10.723h-1.23L-63.379-1.26l-3.149-9.463h-1.3Zm6.764-10.1a.822.822,0,0,0,.828.828A.822.822,0,0,0-55.8-10.1a.822.822,0,0,0-.828-.828A.822.822,0,0,0-57.457-10.1ZM-57.23,0h1.245V-7.83H-57.23Zm9.686,0H-46.3V-11.4h-1.245v4.812a3.111,3.111,0,0,0-2.739-1.4c-2.3,0-3.64,1.919-3.64,4.094,0,2.212,1.165,4.021,3.538,4.021a3.526,3.526,0,0,0,2.842-1.487ZM-50.2-.908c-1.663,0-2.432-1.428-2.432-2.922,0-1.663.659-3.113,2.556-3.113C-48.3-6.943-47.5-5.662-47.5-4-47.5-2.278-48.357-.908-50.2-.908Zm11.847-1.377A2.429,2.429,0,0,1-40.466-.908a2.467,2.467,0,0,1-2.512-2.769h5.911c0-2.344-.894-4.307-3.53-4.307-2.263,0-3.669,1.86-3.669,4.08A3.752,3.752,0,0,0-40.473.132,3.568,3.568,0,0,0-37.2-1.794Zm-4.578-2.4A2.378,2.378,0,0,1-40.6-6.943,2.1,2.1,0,0,1-38.356-4.68ZM-31.812.132A3.886,3.886,0,0,0-27.864-3.94a3.827,3.827,0,0,0-3.875-4.043A3.87,3.87,0,0,0-35.665-3.9,3.8,3.8,0,0,0-31.812.132Zm.022-1.04c-1.721,0-2.585-1.318-2.585-3.01,0-1.611.784-3.025,2.571-3.025,1.765,0,2.651,1.384,2.651,3.018C-29.153-2.344-29.988-.908-31.79-.908Zm14.8-1.846A2.5,2.5,0,0,1-19.376-.908c-1.721,0-2.563-1.34-2.563-2.937,0-1.545.791-3.1,2.446-3.1a2.545,2.545,0,0,1,2.4,1.633l1.135-.5a3.562,3.562,0,0,0-3.435-2.175,3.826,3.826,0,0,0-3.838,4.021c0,2.292,1.362,4.094,3.765,4.094A3.63,3.63,0,0,0-15.9-2.285ZM-10.664.132A3.886,3.886,0,0,0-6.716-3.94a3.827,3.827,0,0,0-3.875-4.043A3.87,3.87,0,0,0-14.516-3.9,3.8,3.8,0,0,0-10.664.132Zm.022-1.04c-1.721,0-2.585-1.318-2.585-3.01,0-1.611.784-3.025,2.571-3.025,1.765,0,2.651,1.384,2.651,3.018C-8.005-2.344-8.84-.908-10.642-.908ZM-4.684,0h1.245V-4.753A2.061,2.061,0,0,1-1.183-6.9C.106-6.9.743-6.152.743-4.827V0H1.989V-4.739c0-1.86-.923-3.245-2.878-3.245A2.7,2.7,0,0,0-3.439-6.6V-7.844H-4.684ZM4.8,0H6.05V-6.8H7.969V-7.844H6.05v-1.3c0-.776.293-1.34,1.165-1.34a3.85,3.85,0,0,1,.608.059l.4-.959a3.525,3.525,0,0,0-1.055-.146c-2.256,0-2.366,1.56-2.366,3.347v.344H3.677V-6.8H4.8ZM14.967-2.285A2.429,2.429,0,0,1,12.857-.908a2.467,2.467,0,0,1-2.512-2.769h5.911c0-2.344-.894-4.307-3.53-4.307-2.263,0-3.669,1.86-3.669,4.08A3.752,3.752,0,0,0,12.85.132a3.568,3.568,0,0,0,3.274-1.926Zm-4.578-2.4a2.378,2.378,0,0,1,2.336-2.263A2.1,2.1,0,0,1,14.967-4.68ZM18.244,0h1.245V-4.307c0-1.787.857-2.446,2.578-2.5V-7.983a2.775,2.775,0,0,0-2.578,1.545V-7.844H18.244ZM28.831-2.285A2.429,2.429,0,0,1,26.722-.908,2.467,2.467,0,0,1,24.21-3.677H30.12c0-2.344-.894-4.307-3.53-4.307-2.263,0-3.669,1.86-3.669,4.08A3.752,3.752,0,0,0,26.715.132a3.568,3.568,0,0,0,3.274-1.926Zm-4.578-2.4A2.378,2.378,0,0,1,26.59-6.943,2.1,2.1,0,0,1,28.831-4.68ZM32.109,0h1.245V-4.753A2.061,2.061,0,0,1,35.61-6.9c1.289,0,1.926.747,1.926,2.073V0h1.245V-4.739c0-1.86-.923-3.245-2.878-3.245A2.7,2.7,0,0,0,33.354-6.6V-7.844H32.109ZM46.98-2.754A2.5,2.5,0,0,1,44.593-.908c-1.721,0-2.563-1.34-2.563-2.937,0-1.545.791-3.1,2.446-3.1a2.545,2.545,0,0,1,2.4,1.633l1.135-.5a3.562,3.562,0,0,0-3.435-2.175A3.826,3.826,0,0,0,40.74-3.962C40.74-1.67,42.1.132,44.5.132a3.63,3.63,0,0,0,3.56-2.417ZM49.84-10.1a.822.822,0,0,0,.828.828A.822.822,0,0,0,51.5-10.1a.822.822,0,0,0-.828-.828A.822.822,0,0,0,49.84-10.1ZM50.067,0h1.245V-7.83H50.067ZM53.96,0h1.245V-4.753A2.061,2.061,0,0,1,57.461-6.9c1.289,0,1.926.747,1.926,2.073V0h1.245V-4.739c0-1.86-.923-3.245-2.878-3.245A2.7,2.7,0,0,0,55.205-6.6V-7.844H53.96Zm8.8.959a3.6,3.6,0,0,0,3.494,1.9c2.168,0,3.962-1.113,3.962-3.4v-7.31H68.971v1.267a3.142,3.142,0,0,0-2.725-1.406,3.747,3.747,0,0,0-3.655,3.94A3.575,3.575,0,0,0,66.166-.256a3.386,3.386,0,0,0,2.805-1.5v1.15a2.379,2.379,0,0,1-2.688,2.424A2.674,2.674,0,0,1,63.749.527ZM66.371-1.3a2.6,2.6,0,0,1-2.49-2.725,2.628,2.628,0,0,1,2.607-2.908,2.5,2.5,0,0,1,2.527,2.754A2.625,2.625,0,0,1,66.371-1.3Z" transform="translate(852.999 4669)" fill="#fff"/>
      <path id="Path_146629" data-name="Path 146629" d="M-63.91,0h3.977c1.963,0,3.523-.857,3.523-3.069a2.339,2.339,0,0,0-2.146-2.556A2.2,2.2,0,0,0-56.93-7.888c0-2.2-1.494-2.834-3.45-2.834h-3.53Zm1.274-6.042V-9.7h2.227c1.2,0,2.2.308,2.2,1.707,0,1.494-.776,1.956-2.175,1.956Zm0,5.024V-5.024h2.49c1.362,0,2.461.381,2.461,2.007,0,1.443-.864,2-2.278,2ZM-54.26,0h1.245V-4.307c0-1.787.857-2.446,2.578-2.5V-7.983a2.775,2.775,0,0,0-2.578,1.545V-7.844H-54.26Zm8.529.132A3.886,3.886,0,0,0-41.784-3.94a3.827,3.827,0,0,0-3.875-4.043A3.87,3.87,0,0,0-49.584-3.9,3.8,3.8,0,0,0-45.732.132Zm.022-1.04c-1.721,0-2.585-1.318-2.585-3.01,0-1.611.784-3.025,2.571-3.025,1.765,0,2.651,1.384,2.651,3.018C-43.073-2.344-43.908-.908-45.71-.908ZM-38.133,0h1.37l1.831-5.881L-33.211,0h1.384l2.534-7.844h-1.274l-1.941,6.313-1.875-6.313h-1.077l-1.9,6.313-1.948-6.313h-1.355Zm9.972-1.912A2.975,2.975,0,0,0-25.151.132c1.479,0,2.886-.754,2.886-2.439,0-1.648-1.34-1.926-2.549-2.183-1-.212-1.9-.41-1.9-1.318,0-.806.71-1.135,1.414-1.135a2.01,2.01,0,0,1,1.86,1.172l.959-.425a3.117,3.117,0,0,0-2.776-1.787,2.414,2.414,0,0,0-2.615,2.212c0,1.626,1.311,1.941,2.5,2.227,1,.242,1.912.461,1.912,1.406s-.9,1.23-1.758,1.23A2,2,0,0,1-27.2-2.329Zm13.209-.374A2.429,2.429,0,0,1-17.061-.908a2.467,2.467,0,0,1-2.512-2.769h5.911c0-2.344-.894-4.307-3.53-4.307-2.263,0-3.669,1.86-3.669,4.08A3.752,3.752,0,0,0-17.069.132a3.568,3.568,0,0,0,3.274-1.926Zm-4.578-2.4a2.378,2.378,0,0,1,2.336-2.263A2.1,2.1,0,0,1-14.952-4.68ZM-11.675,0h1.245V-4.307c0-1.787.857-2.446,2.578-2.5V-7.983a2.775,2.775,0,0,0-2.578,1.545V-7.844h-1.245ZM2.578-2.285A2.429,2.429,0,0,1,.469-.908,2.467,2.467,0,0,1-2.043-3.677H3.867c0-2.344-.894-4.307-3.53-4.307-2.263,0-3.669,1.86-3.669,4.08A3.752,3.752,0,0,0,.461.132,3.568,3.568,0,0,0,3.735-1.794ZM-2-4.68A2.378,2.378,0,0,1,.337-6.943,2.1,2.1,0,0,1,2.578-4.68ZM4.9,0h1.34L8.4-3.164,10.514,0h1.472L9.122-4.124l2.593-3.721H10.367L8.463-5,6.544-7.844H5.087L7.709-4.036ZM17.212-1.113a2.82,2.82,0,0,1-.908.168c-.784,0-1.025-.476-1.025-1.143V-6.8h1.831V-7.844H15.278V-9.858l-1.245.542v1.472H12.9V-6.8h1.128v4.834A1.849,1.849,0,0,0,16.135.1a3.551,3.551,0,0,0,1.077-.161Zm7.3-1.172A2.429,2.429,0,0,1,22.4-.908a2.467,2.467,0,0,1-2.512-2.769H25.8c0-2.344-.894-4.307-3.53-4.307-2.263,0-3.669,1.86-3.669,4.08A3.752,3.752,0,0,0,22.393.132a3.568,3.568,0,0,0,3.274-1.926Zm-4.578-2.4a2.378,2.378,0,0,1,2.336-2.263A2.1,2.1,0,0,1,24.51-4.68ZM27.788,0h1.245V-4.753A2.061,2.061,0,0,1,31.288-6.9c1.289,0,1.926.747,1.926,2.073V0H34.46V-4.739c0-1.86-.923-3.245-2.878-3.245A2.7,2.7,0,0,0,29.033-6.6V-7.844H27.788ZM36.36-1.912A2.975,2.975,0,0,0,39.371.132c1.479,0,2.886-.754,2.886-2.439,0-1.648-1.34-1.926-2.549-2.183-1-.212-1.9-.41-1.9-1.318,0-.806.71-1.135,1.414-1.135a2.01,2.01,0,0,1,1.86,1.172l.959-.425a3.117,3.117,0,0,0-2.776-1.787,2.414,2.414,0,0,0-2.615,2.212c0,1.626,1.311,1.941,2.5,2.227,1,.242,1.912.461,1.912,1.406s-.9,1.23-1.758,1.23A2,2,0,0,1,37.32-2.329ZM44.047-10.1a.822.822,0,0,0,.828.828A.822.822,0,0,0,45.7-10.1a.822.822,0,0,0-.828-.828A.822.822,0,0,0,44.047-10.1ZM44.274,0h1.245V-7.83H44.274Zm7.159.132A3.886,3.886,0,0,0,55.381-3.94a3.827,3.827,0,0,0-3.875-4.043A3.87,3.87,0,0,0,47.581-3.9,3.8,3.8,0,0,0,51.433.132Zm.022-1.04c-1.721,0-2.585-1.318-2.585-3.01,0-1.611.784-3.025,2.571-3.025,1.765,0,2.651,1.384,2.651,3.018C54.092-2.344,53.257-.908,51.455-.908ZM57.413,0h1.245V-4.753A2.061,2.061,0,0,1,60.914-6.9c1.289,0,1.926.747,1.926,2.073V0h1.245V-4.739c0-1.86-.923-3.245-2.878-3.245A2.7,2.7,0,0,0,58.659-6.6V-7.844H57.413Z" transform="translate(1382 4670)" fill="#fff"/>
      <g id="Group_33524" data-name="Group 33524" transform="translate(834.58 4587.625)">
        <g id="Group_33525" data-name="Group 33525" transform="translate(1.42 1.397)">
          <path id="Path_145859-5" data-name="Path 145859" d="M528.068,339.5h8.079a2.656,2.656,0,0,0,2.656-2.656V330.71a4.985,4.985,0,0,0-3.232-4.667l-3.463-1.3v-1.586" transform="translate(-505.267 -309.412)" fill="none" stroke="#fff" stroke-linecap="round" stroke-linejoin="round" stroke-width="1.5"/>
          <path id="Path_145860" data-name="Path 145860" d="M419.386,298.21l3.463-1.3v-2.875" transform="translate(-401.394 -281.579)" fill="none" stroke="#fff" stroke-linecap="round" stroke-linejoin="round" stroke-width="1.5"/>
          <path id="Path_145861" data-name="Path 145861" d="M561.192,359a4.865,4.865,0,0,1-2.693,2.292" transform="translate(-534.352 -343.673)" fill="none" stroke="#fff" stroke-linecap="round" stroke-linejoin="round" stroke-width="1.5"/>
          <path id="Path_145862" data-name="Path 145862" d="M497.639,359a4.865,4.865,0,0,0,2.693,2.292" transform="translate(-476.185 -343.673)" fill="none" stroke="#fff" stroke-linecap="round" stroke-linejoin="round" stroke-width="1.5"/>
          <line id="Line_1109" data-name="Line 1109" y2="3.923" transform="translate(26.84 9.821)" fill="none" stroke="#fff" stroke-linecap="round" stroke-linejoin="round" stroke-width="1.5"/>
          <path id="Path_145863" data-name="Path 145863" d="M35.551,410.407H15.965L12.843,399.4c-.321-1.132.212-2.05,1.191-2.05h16.04a2.759,2.759,0,0,1,2.354,2.05Z" transform="translate(-12.75 -380.325)" fill="none" stroke="#fff" stroke-linecap="round" stroke-linejoin="round" stroke-width="1.5"/>
          <path id="Path_145864" data-name="Path 145864" d="M516.264,515.874v2.752a1.154,1.154,0,0,1-1.154,1.154h-6.464" transform="translate(-486.704 -493.603)" fill="none" stroke="#fff" stroke-linecap="round" stroke-linejoin="round" stroke-width="1.5"/>
          <path id="Path_145865" data-name="Path 145865" d="M555.764,17.618c-.416-2.9-2.171-5.078-5.268-5.078" transform="translate(-526.703 -12.54)" fill="none" stroke="#fff" stroke-linecap="round" stroke-linejoin="round" stroke-width="1.5"/>
          <path id="Path_145866" data-name="Path 145866" d="M434.6,12.54c-3.579,0-5.365,2.9-5.365,6.48s1.787,6.48,5.365,6.48q.18,0,.354-.01" transform="translate(-410.805 -12.54)" fill="none" stroke="#fff" stroke-linecap="round" stroke-linejoin="round" stroke-width="1.5"/>
          <ellipse id="Ellipse_8803" data-name="Ellipse 8803" cx="2.291" cy="2.683" rx="2.291" ry="2.683" transform="translate(25.645 4.891)" fill="none" stroke="#fff" stroke-linecap="round" stroke-linejoin="round" stroke-width="1.5"/>
          <path id="Path_145867" data-name="Path 145867" d="M516.6,16.867a5.86,5.86,0,0,1,4.044,5.46" transform="translate(-494.306 -16.676)" fill="none" stroke="#fff" stroke-linecap="round" stroke-linejoin="round" stroke-width="1.5"/>
          <path id="Path_145868" data-name="Path 145868" d="M632.216,169.1a.584.584,0,1,1-.577-.676.632.632,0,0,1,.577.676" transform="translate(-603.704 -161.532)" fill="#2e4d62" stroke="#fff" stroke-width="1.5"/>
          <circle id="Ellipse_8804" data-name="Ellipse 8804" cx="5.561" cy="5.561" r="5.561" transform="translate(1.162 12.43) rotate(-89.708)" fill="none" stroke="#fff" stroke-linecap="round" stroke-linejoin="round" stroke-width="1.5"/>
          <path id="Path_145869" data-name="Path 145869" d="M140.313,128.037V124.5a.224.224,0,0,1,.344-.19l2.8,1.766a.224.224,0,0,1,0,.379l-2.8,1.766a.224.224,0,0,1-.344-.19" transform="translate(-134.669 -119.336)" fill="#2d4d63" stroke="#fff" stroke-width="1.5"/>
        </g>
      </g>
      <g id="Group_33532" data-name="Group 33532" transform="translate(1356.26 4337.463)">
        <g id="Group_33533" data-name="Group 33533">
          <path id="Path_145873" data-name="Path 145873" d="M41.885,46v6.166a1.37,1.37,0,0,1-1.37,1.37H9" transform="translate(-2.834 -14.485)" fill="none" stroke="#fff" stroke-linecap="round" stroke-linejoin="round" stroke-width="1.5"/>
          <path id="Path_145874" data-name="Path 145874" d="M9,23H40.515a1.37,1.37,0,0,1,1.37,1.37v6.851" transform="translate(-2.834 -7.243)" fill="none" stroke="#fff" stroke-linecap="round" stroke-linejoin="round" stroke-width="1.5"/>
          <path id="Path_145875" data-name="Path 145875" d="M7.426,21.111C5.534,21.111,4,20.191,4,19.055S5.534,17,7.426,17" transform="translate(-1.26 -5.353)" fill="none" stroke="#fff" stroke-linecap="round" stroke-linejoin="round" stroke-width="1.5"/>
          <path id="Path_145876" data-name="Path 145876" d="M7.426,56.055C5.534,56.055,4,55.135,4,54" transform="translate(-1.26 -17.004)" fill="none" stroke="#fff" stroke-linecap="round" stroke-linejoin="round" stroke-width="1.5"/>
          <line id="Line_1110" data-name="Line 1110" y1="22" transform="translate(3 14.847)" fill="none" stroke="#fff" stroke-linecap="round" stroke-linejoin="round" stroke-width="1.5"/>
          <path id="Path_145877" data-name="Path 145877" d="M37.065,19.221,34.236,11,10.35,19.221" transform="translate(-3.259 -3.464)" fill="none" stroke="#fff" stroke-linecap="round" stroke-linejoin="round" stroke-width="1.5"/>
          <line id="Line_1111" data-name="Line 1111" x2="12.56" transform="translate(6.166 11.647)" fill="none" stroke="#fff" stroke-linecap="round" stroke-linejoin="round" stroke-width="1.5"/>
          <path id="Path_145878" data-name="Path 145878" d="M52.569,21.111V18.37A1.37,1.37,0,0,0,51.2,17H47.279" transform="translate(-14.888 -5.353)" fill="none" stroke="#fff" stroke-linecap="round" stroke-linejoin="round" stroke-width="1.5"/>
          <circle id="Ellipse_8807" data-name="Ellipse 8807" cx="1.5" cy="1.5" r="1.5" transform="translate(30 25.847)" fill="none" stroke="#fff" stroke-linecap="round" stroke-linejoin="round" stroke-width="1.5"/>
          <line id="Line_1112" data-name="Line 1112" x2="10" transform="translate(29 23.847)" fill="none" stroke="#fff" stroke-linecap="round" stroke-linejoin="round" stroke-width="1.5"/>
          <path id="Path_145879" data-name="Path 145879" d="M52.647,31h.685a1.37,1.37,0,0,1,1.37,1.37v6.851a1.37,1.37,0,0,1-1.37,1.37H42.574A1.574,1.574,0,0,1,41,39.018v-3.7a1.574,1.574,0,0,1,1.574-1.574" transform="translate(-12.911 -9.762)" fill="none" stroke="#fff" stroke-linecap="round" stroke-linejoin="round" stroke-width="1.5"/>
        </g>
      </g>
      <g id="Group_33535" data-name="Group 33535" transform="translate(1359.887 4592.519)">
        <g id="Group_33536" data-name="Group 33536">
          <path id="Path_145880" data-name="Path 145880" d="M31.467,23.607a1.248,1.248,0,0,1-1.249,1.247H2.386a1.25,1.25,0,0,1-1.247-1.247V4.733l30.328.055ZM2.386,25.995H30.218a2.388,2.388,0,0,0,2.388-2.387V2.388A2.388,2.388,0,0,0,30.218,0H21.433a.57.57,0,1,0,0,1.14h8.785a1.248,1.248,0,0,1,1.249,1.247V3.647L1.139,3.592v-1.2A1.25,1.25,0,0,1,2.386,1.14H16.873a.57.57,0,1,0,0-1.14H2.386A2.388,2.388,0,0,0,0,2.388V23.607a2.388,2.388,0,0,0,2.386,2.387" fill="#fff"/>
          <path id="Path_145881" data-name="Path 145881" d="M45.284,108.35Z" transform="translate(-37.112 -88.798)" fill="#fff"/>
          <path id="Path_145882" data-name="Path 145882" d="M76.163,49.19h0Z" transform="translate(-62.419 -40.312)" fill="#fff"/>
          <path id="Path_145883" data-name="Path 145883" d="M76.163,115.7h0Z" transform="translate(-62.419 -94.821)" fill="#fff"/>
          <path id="Path_145884" data-name="Path 145884" d="M33.359,45.3a1.395,1.395,0,0,1,1.809-.142,1.654,1.654,0,0,0,.978.315,1.712,1.712,0,0,0,.253-.018.571.571,0,0,0,.487-.564V41.04a.178.178,0,0,1,.054-.13.181.181,0,0,1,.13-.054H40.96a.57.57,0,0,0,.562-.47,1.763,1.763,0,0,0,.027-.307,1.677,1.677,0,0,0-.326-1h0a1.378,1.378,0,0,1-.273-.827c0-.02,0-.04,0-.06h0a1.407,1.407,0,0,1,1.305-1.336l.09,0a1.4,1.4,0,0,1,1.132,2.218h0a1.663,1.663,0,0,0-.316.977,1.706,1.706,0,0,0,.036.35.57.57,0,0,0,.559.455h3.87a.179.179,0,0,1,.132.057.115.115,0,0,1,.021.031.286.286,0,0,1,.019.071l.009.053h0a.165.165,0,0,1,0,.039v.929l.033,2.867a.572.572,0,0,0,.516.561c.054.005.109.008.165.008a1.658,1.658,0,0,0,.976-.314,1.381,1.381,0,0,1,.82-.268,1.4,1.4,0,0,1,1.4,1.4c0,.03,0,.06,0,.09a1.405,1.405,0,0,1-1.336,1.306h-.061a1.377,1.377,0,0,1-.826-.272h0a1.681,1.681,0,0,0-1-.325c-.04,0-.082,0-.121,0a.571.571,0,0,0-.531.569v3.754a.581.581,0,0,0-.033.182v0a.179.179,0,0,1-.054.13.182.182,0,0,1-.13.054H44.379c.007-.012.013-.025.021-.036h0a2.538,2.538,0,0,0-2.053-4.031c-.052,0-.106,0-.16.005a2.546,2.546,0,0,0-2.375,2.427c0,.036,0,.073,0,.108a2.533,2.533,0,0,0,.494,1.5h0l.013.023h-3.25a.182.182,0,0,1-.13-.054.179.179,0,0,1-.054-.13V47.666a.569.569,0,0,0-.5-.566,1.707,1.707,0,0,0-1.208.313h0a1.38,1.38,0,0,1-.826.272h-.062a1.405,1.405,0,0,1-1.335-1.306h0c0-.029,0-.059,0-.089a1.39,1.39,0,0,1,.41-.989m-.784,2.8a2.528,2.528,0,0,0,1.668.723l.106,0a2.518,2.518,0,0,0,1.4-.42v3.2a1.323,1.323,0,0,0,1.325,1.324h3.878a.571.571,0,0,0,.554-.437,1.756,1.756,0,0,0,.048-.405,1.674,1.674,0,0,0-.326-1h0a1.377,1.377,0,0,1-.273-.826c0-.021,0-.04,0-.06v0a1.408,1.408,0,0,1,1.305-1.336l.09,0a1.4,1.4,0,0,1,1.132,2.219h0a1.651,1.651,0,0,0-.316.976,1.7,1.7,0,0,0,.061.45.569.569,0,0,0,.549.42h3.854a1.321,1.321,0,0,0,1.3-1.086.574.574,0,0,0,.055-.24V48.444a2.515,2.515,0,0,0,1.336.381l.108,0a2.546,2.546,0,0,0,2.427-2.373c0-.054,0-.108,0-.161a2.536,2.536,0,0,0-3.884-2.151l-.024-2.111v-.92a1.409,1.409,0,0,0-.018-.225v0l-.009-.053h0a1.388,1.388,0,0,0-.111-.362,1.234,1.234,0,0,0-.232-.343,1.317,1.317,0,0,0-.955-.408H44.421a2.537,2.537,0,0,0-2.074-4c-.052,0-.106,0-.16.005a2.546,2.546,0,0,0-2.375,2.427c0,.036,0,.072,0,.108a2.536,2.536,0,0,0,.466,1.461H37.068a1.324,1.324,0,0,0-1.325,1.324v3.132a2.536,2.536,0,0,0-3.935,2.116c0,.053,0,.107,0,.161a2.528,2.528,0,0,0,.76,1.651" transform="translate(-26.069 -29.27)" fill="#fff"/>
          <path id="Path_145885" data-name="Path 145885" d="M31.834,95.2h0Z" transform="translate(-26.089 -78.018)" fill="#fff"/>
          <path id="Path_145886" data-name="Path 145886" d="M134.987,108.35Z" transform="translate(-110.627 -88.798)" fill="#fff"/>
          <path id="Path_145891" data-name="Path 145891" d="M34.055,44.8a.569.569,0,0,0,.569-.57V39.8a.57.57,0,1,0-1.139,0v4.424a.57.57,0,0,0,.57.57" transform="translate(-27.443 -32.154)" fill="#fff"/>
          <path id="Path_145892" data-name="Path 145892" d="M151.835,58.746a.206.206,0,0,0,.206-.205V54.227a.206.206,0,0,0-.411,0V58.54a.205.205,0,0,0,.206.205" transform="translate(-123.902 -35.505)" fill="#fff"/>
        </g>
      </g>
      <g id="Group_33540" data-name="Group 33540" transform="translate(1087.5 4454.766)">
        <g id="Group_26867" data-name="Group 26867" transform="translate(0)">
          <path id="Path_99104" data-name="Path 99104" d="M144.8,17.7a19.617,19.617,0,0,0-4.138-6.145,19.271,19.271,0,0,0-6.145-4.138,16.452,16.452,0,0,0-2.338-.807V4.959a1.759,1.759,0,1,0-3.517,0V5.972c-.559-.041-1.117-.083-1.676-.083H109.259a1.759,1.759,0,1,0,0,3.517H126.99a15.15,15.15,0,0,1,1.676.083v.91a1.759,1.759,0,1,0,3.517,0v-.124a15.843,15.843,0,0,1,10.634,14.959V43.793a15.858,15.858,0,0,1-15.848,15.848h-4.3a1.759,1.759,0,1,0,0,3.517h4.3a19.146,19.146,0,0,0,7.531-1.531,19.617,19.617,0,0,0,6.145-4.138,19.371,19.371,0,0,0,5.669-13.676V25.255A19.227,19.227,0,0,0,144.8,17.7Z" transform="translate(-86.314 -3.159)" fill="#fff"/>
          <path id="Path_99105" data-name="Path 99105" d="M43.79,43.634A19.146,19.146,0,0,0,42.259,36.1a19.616,19.616,0,0,0-4.138-6.145,19.316,19.316,0,0,0-21.207-4.138,19.616,19.616,0,0,0-6.145,4.138A20.9,20.9,0,0,0,8.617,32.5V25.076a15.906,15.906,0,0,1,3.641-10.1,15.742,15.742,0,0,1,6.972-4.841v.083a1.759,1.759,0,1,0,3.517,0V4.759a1.759,1.759,0,0,0-3.517,0V6.434A19.4,19.4,0,0,0,6.279,18.393,19.351,19.351,0,0,0,5.1,25.076V43.634a19.146,19.146,0,0,0,1.531,7.531,19.616,19.616,0,0,0,4.138,6.145,19.371,19.371,0,0,0,13.676,5.669,1.366,1.366,0,0,0,.29-.021,19.3,19.3,0,0,0,7.241-1.51,19.616,19.616,0,0,0,6.145-4.138A19.371,19.371,0,0,0,43.79,43.634ZM35.638,54.828a15.834,15.834,0,1,1,4.634-11.193A15.712,15.712,0,0,1,35.638,54.828Z" transform="translate(-5.1 -3)" fill="#fff"/>
        </g>
        <g id="Group_26868" data-name="Group 26868" transform="translate(11.901 22.639)">
          <path id="Path_99106" data-name="Path 99106" d="M70.064,132.2a1.742,1.742,0,0,1-1.283-.559l-5.69-6.062a1.757,1.757,0,0,1,2.566-2.4l4.49,4.779,16.179-15.062a1.757,1.757,0,0,1,2.4,2.566L71.264,131.719A1.762,1.762,0,0,1,70.064,132.2Z" transform="translate(-62.62 -112.42)" fill="#fff"/>
        </g>
      </g>
    </g>
  </g>
</svg>
