<svg width="48" height="59" viewBox="0 0 48 59" fill="none" xmlns="http://www.w3.org/2000/svg">
<path d="M31.93 22.9497H16C14.8954 22.9497 14 22.0543 14 20.9497V19.8906C14 16.5769 16.6863 13.8906 20 13.8906H27.93C31.2437 13.8906 33.93 16.5769 33.93 19.8906V20.9497C33.93 22.0543 33.0346 22.9497 31.93 22.9497Z" fill="#7355DA"/>
<ellipse cx="23.6631" cy="6.03939" rx="6.03939" ry="6.03939" fill="#7355DA"/>
<path d="M28 33.6152L24.3763 38.2381L20.5 33.6152" stroke="#7355DA" stroke-width="1.5" stroke-linecap="round" stroke-linejoin="round"/>
<path d="M24.3763 27.2617V38.2376" stroke="#7355DA" stroke-width="1.5" stroke-linecap="round"/>
<path d="M46.3158 51.9994H35.5789C34.7069 51.9994 34 51.2925 34 50.4204C34 47.8043 36.1208 45.6836 38.7368 45.6836H43.1579C45.774 45.6836 47.8947 47.8043 47.8947 50.4204C47.8947 51.2925 47.1878 51.9994 46.3158 51.9994Z" fill="#B5A7F9"/>
<ellipse cx="40.7368" cy="40.2105" rx="4.21053" ry="4.21053" fill="#B5A7F9"/>
<path d="M29.3157 58.9994H18.5789C17.7069 58.9994 16.9999 58.2925 16.9999 57.4204C16.9999 54.8043 19.1207 52.6836 21.7368 52.6836H26.1578C28.7739 52.6836 30.8947 54.8043 30.8947 57.4204C30.8947 58.2925 30.1878 58.9994 29.3157 58.9994Z" fill="#B5A7F9"/>
<circle cx="23.7368" cy="47.2105" r="4.21053" fill="#B5A7F9"/>
<path d="M12.3156 51.9993H1.57892C0.706906 51.9993 0 51.2924 0 50.4204C0 47.8043 2.12072 45.6836 4.73676 45.6836H9.15773C11.7738 45.6836 13.8945 47.8043 13.8945 50.4204C13.8945 51.2924 13.1876 51.9993 12.3156 51.9993Z" fill="#B5A7F9"/>
<circle cx="6.73676" cy="40.2104" r="4.21045" fill="#B5A7F9"/>
</svg>
