<svg width="175" height="157" viewBox="0 0 175 157" fill="none" xmlns="http://www.w3.org/2000/svg">
<g clip-path="url(#clip0_1480_12522)">
<path fill-rule="evenodd" clip-rule="evenodd" d="M164.121 81.799C171.904 59.4922 160.052 35.8013 143.715 21.7998C128.206 8.50765 101.015 3.78906 78.6332 3.78906C59.2705 3.78906 -5 21.7998 -5 82.0081C-5 126.522 118.767 211.791 164.121 81.799Z" fill="url(#paint0_linear_1480_12522)"/>
<path d="M163.399 86.4361C164.82 86.4361 165.972 85.2839 165.972 83.8626C165.972 82.4413 164.82 81.2891 163.399 81.2891C161.977 81.2891 160.825 82.4413 160.825 83.8626C160.825 85.2839 161.977 86.4361 163.399 86.4361Z" stroke="#CBC4FF" stroke-width="1.2" stroke-linejoin="round"/>
<path d="M170.476 80.4643C170.476 80.4643 170.476 78.1767 170.476 73.6016M167.045 77.0329C167.045 77.0329 169.332 77.0329 173.907 77.0329" stroke="#FF8AB6" stroke-width="1.2" stroke-linecap="round"/>
<path d="M15.4427 72.4439C16.864 72.4439 18.0162 71.2917 18.0162 69.8704C18.0162 68.4491 16.864 67.2969 15.4427 67.2969C14.0213 67.2969 12.8691 68.4491 12.8691 69.8704C12.8691 71.2917 14.0213 72.4439 15.4427 72.4439Z" stroke="#CBC4FF" stroke-width="1.2" stroke-linejoin="round"/>
<path d="M5.77 66.7377C5.77 66.7377 5.77 64.4502 5.77 59.875M2.33862 63.3064C2.33862 63.3064 4.6262 63.3064 9.20137 63.3064" stroke="#FF8AB6" stroke-width="1.2" stroke-linecap="round"/>
<path d="M82.3528 13.6939C83.7741 13.6939 84.9264 12.5417 84.9264 11.1204C84.9264 9.69908 83.7741 8.54688 82.3528 8.54688C80.9315 8.54688 79.7793 9.69908 79.7793 11.1204C79.7793 12.5417 80.9315 13.6939 82.3528 13.6939Z" stroke="#CBC4FF" stroke-width="1.2" stroke-linejoin="round"/>
<path d="M90.2878 7.72212C90.2878 7.72212 90.2878 5.43454 90.2878 0.859375M86.8564 4.29075C86.8564 4.29075 89.144 4.29075 93.7192 4.29075" stroke="#FF8AB6" stroke-width="1.2" stroke-linecap="round"/>
<path d="M12.5159 55.8266L17.3686 60.6793" stroke="#FFD59D" stroke-width="1.5" stroke-linecap="round" stroke-dasharray="3 3"/>
<path d="M75.1394 5.7761L79.9906 0.921875" stroke="#FFD59D" stroke-width="1.5" stroke-linecap="round" stroke-dasharray="3 3"/>
<path d="M156.634 76.9792L161.485 72.125" stroke="#FFD59D" stroke-width="1.5" stroke-linecap="round" stroke-dasharray="3 3"/>
<path fill-rule="evenodd" clip-rule="evenodd" d="M30.436 117.399C34.1604 104.172 35.4756 91.4596 34.3816 79.2605C34.3816 73.6301 32.1344 67.5273 32.1344 59.2503C32.1344 54.8304 33.4063 49.9388 35.95 44.5757C39.9173 37.8111 45.4208 32.607 52.4605 28.9636C59.5002 25.3201 67.9121 24.4754 77.6963 26.4295C91.4962 30.3705 100.485 38.6797 104.663 51.3573C105.931 55.2039 106.635 59.1149 107.605 61.8868C109.024 65.9428 110.468 69.1968 111.937 71.6487C118.362 82.6892 125.358 90.0616 132.925 93.7658" fill="#E1DEF9"/>
<path d="M67.6141 33.4606C72.796 33.4606 76.9968 29.2599 76.9968 24.078C76.9968 18.8961 72.796 14.6953 67.6141 14.6953C62.4322 14.6953 58.2314 18.8961 58.2314 24.078C58.2314 29.2599 62.4322 33.4606 67.6141 33.4606Z" fill="url(#paint1_linear_1480_12522)"/>
<path d="M67.6142 28.7655C70.2051 28.7655 72.3055 26.6651 72.3055 24.0741C72.3055 21.4832 70.2051 19.3828 67.6142 19.3828C65.0232 19.3828 62.9229 21.4832 62.9229 24.0741C62.9229 26.6651 65.0232 28.7655 67.6142 28.7655Z" fill="white"/>
<g filter="url(#filter0_d_1480_12522)">
<path d="M31.9507 114.708C39.37 102.447 42.5327 90.2175 41.4386 78.0184C41.4386 72.3879 39.1915 66.2851 39.1915 58.0081C39.1915 53.5882 40.4634 48.6966 43.0071 43.3335C46.9744 36.5689 52.4779 31.3648 59.5175 27.7214C66.5572 24.0779 74.9692 23.2332 84.7534 25.1873C98.5533 29.1283 107.542 37.4375 111.72 50.1151C112.988 53.9617 113.692 57.8728 114.662 60.6446C116.082 64.7007 117.525 67.9546 118.994 70.4065C125.419 81.447 132.415 88.8194 139.982 92.5237" fill="black"/>
</g>
<path d="M31.9507 114.708C39.37 102.447 42.5327 90.2175 41.4386 78.0184C41.4386 72.3879 39.1915 66.2851 39.1915 58.0081C39.1915 53.5882 40.4634 48.6966 43.0071 43.3335C46.9744 36.5689 52.4779 31.3648 59.5175 27.7214C66.5572 24.0779 74.9692 23.2332 84.7534 25.1873C98.5533 29.1283 107.542 37.4375 111.72 50.1151C112.988 53.9617 113.692 57.8728 114.662 60.6446C116.082 64.7007 117.525 67.9546 118.994 70.4065C125.419 81.447 132.415 88.8194 139.982 92.5237" fill="white"/>
<path d="M113.819 73.6475C121.342 74.9742 128.517 69.9505 129.843 62.4269C131.17 54.9032 126.146 47.7287 118.623 46.4021C111.099 45.0754 103.925 50.0991 102.598 57.6227C101.271 65.1464 106.295 72.3209 113.819 73.6475Z" fill="#E1DEF9"/>
<path d="M112.305 61.9297C112.148 61.4401 112.052 60.9505 112.016 60.4609C111.979 59.9661 111.961 59.474 111.961 58.9844C111.961 58.25 112.052 57.5469 112.234 56.875C112.422 56.1979 112.708 55.6042 113.094 55.0937C113.484 54.5781 113.977 54.1667 114.57 53.8594C115.164 53.5521 115.867 53.3984 116.68 53.3984C117.273 53.3984 117.799 53.4818 118.258 53.6484C118.716 53.8151 119.115 54.0443 119.453 54.3359C119.797 54.6224 120.086 54.9635 120.32 55.3594C120.555 55.75 120.742 56.1745 120.883 56.6328C121.029 57.0859 121.133 57.5599 121.195 58.0547C121.258 58.5495 121.289 59.0469 121.289 59.5469C121.289 60.2708 121.198 60.9714 121.016 61.6484C120.839 62.3203 120.563 62.9167 120.188 63.4375C119.813 63.9583 119.336 64.375 118.758 64.6875C118.18 65 117.49 65.1562 116.688 65.1562C116.151 65.1562 115.648 65.0833 115.18 64.9375C114.716 64.7865 114.297 64.5729 113.922 64.2969C113.552 64.0156 113.229 63.6771 112.953 63.2812C112.682 62.8802 112.466 62.4297 112.305 61.9297ZM116.719 63.7031C117.156 63.7031 117.526 63.6328 117.828 63.4922C118.135 63.3464 118.391 63.1536 118.594 62.9141C118.802 62.6745 118.964 62.3958 119.078 62.0781C119.198 61.7604 119.286 61.4271 119.344 61.0781C119.401 60.724 119.438 60.3646 119.453 60C119.469 59.6354 119.477 59.2865 119.477 58.9531C119.477 58.4844 119.435 58.0052 119.352 57.5156C119.268 57.026 119.12 56.5807 118.906 56.1797C118.693 55.7734 118.404 55.4427 118.039 55.1875C117.674 54.9323 117.214 54.8047 116.656 54.8047C116.219 54.8047 115.841 54.8776 115.523 55.0234C115.211 55.1641 114.948 55.3542 114.734 55.5937C114.521 55.8333 114.349 56.1146 114.219 56.4375C114.094 56.7552 113.997 57.0911 113.93 57.4453C113.867 57.7995 113.826 58.1615 113.805 58.5312C113.784 58.8958 113.773 59.2448 113.773 59.5781C113.773 60.0573 113.815 60.5417 113.898 61.0312C113.987 61.5208 114.141 61.9635 114.359 62.3594C114.583 62.7552 114.885 63.0781 115.266 63.3281C115.646 63.5781 116.13 63.7031 116.719 63.7031Z" fill="#5A5098"/>
<path fill-rule="evenodd" clip-rule="evenodd" d="M89.2902 121.548C122.198 114.553 145.25 103.35 143.604 95.6069C141.958 87.8639 116.238 86.5131 83.3302 93.5078C50.4225 100.503 27.7818 111.944 29.4276 119.687C31.0734 127.43 56.3825 128.542 89.2902 121.548Z" fill="#E1DEF9"/>
<path d="M88.8794 117.64C112.385 112.643 134.582 104.11 133.406 98.5789C132.231 93.0482 108.128 92.615 84.6223 97.6112C61.1168 102.607 39.7387 111.96 40.9143 117.491C42.0899 123.022 65.374 122.636 88.8794 117.64Z" fill="url(#paint2_linear_1480_12522)"/>
<mask id="mask0_1480_12522" style="mask-type:luminance" maskUnits="userSpaceOnUse" x="40" y="94" width="94" height="28">
<path d="M88.8794 117.64C112.385 112.643 134.582 104.11 133.406 98.5789C132.231 93.0482 108.128 92.615 84.6223 97.6112C61.1168 102.607 39.7387 111.96 40.9143 117.491C42.0899 123.022 65.374 122.636 88.8794 117.64Z" fill="white"/>
</mask>
<g mask="url(#mask0_1480_12522)">
<path d="M81.0901 111.641L82.9704 107.786" stroke="white" stroke-width="2" stroke-linecap="round"/>
</g>
<mask id="mask1_1480_12522" style="mask-type:luminance" maskUnits="userSpaceOnUse" x="40" y="94" width="94" height="28">
<path d="M88.8794 117.64C112.385 112.643 134.582 104.11 133.406 98.5789C132.231 93.0482 108.128 92.615 84.6223 97.6112C61.1168 102.607 39.7387 111.96 40.9143 117.491C42.0899 123.022 65.374 122.636 88.8794 117.64Z" fill="white"/>
</mask>
<g mask="url(#mask1_1480_12522)">
<path d="M87.2683 107.742L87.2683 112.031" stroke="white" stroke-width="2" stroke-linecap="round"/>
</g>
<mask id="mask2_1480_12522" style="mask-type:luminance" maskUnits="userSpaceOnUse" x="40" y="94" width="94" height="28">
<path d="M88.8794 117.64C112.385 112.643 134.582 104.11 133.406 98.5789C132.231 93.0482 108.128 92.615 84.6223 97.6112C61.1168 102.607 39.7387 111.96 40.9143 117.491C42.0899 123.022 65.374 122.636 88.8794 117.64Z" fill="white"/>
</mask>
<g mask="url(#mask2_1480_12522)">
<path d="M91.7744 106.883L94.8029 109.92" stroke="white" stroke-width="2" stroke-linecap="round"/>
</g>
<mask id="mask3_1480_12522" style="mask-type:luminance" maskUnits="userSpaceOnUse" x="40" y="94" width="94" height="28">
<path d="M88.8794 117.64C112.385 112.643 134.582 104.11 133.406 98.5789C132.231 93.0482 108.128 92.615 84.6223 97.6112C61.1168 102.607 39.7387 111.96 40.9143 117.491C42.0899 123.022 65.374 122.636 88.8794 117.64Z" fill="white"/>
</mask>
<g mask="url(#mask3_1480_12522)">
<path d="M88.1175 104.357C91.3354 103.554 93.2936 100.295 92.4913 97.0773C91.689 93.8594 88.4299 91.9012 85.212 92.7035C81.9941 93.5058 80.0359 96.7649 80.8382 99.9828C81.6405 103.201 84.8996 105.159 88.1175 104.357Z" fill="white"/>
</g>
<path d="M49.1023 80.7246C49.2942 86.6188 48.2763 92.5533 46.0484 98.5279" stroke="#5A5098" stroke-width="2" stroke-linecap="round" stroke-linejoin="round"/>
<path d="M82.3149 31.5173C89.1574 31.4258 95.0661 35.0285 100.041 42.3252" stroke="#FF3C85" stroke-width="2" stroke-linecap="round" stroke-linejoin="round"/>
</g>
<defs>
<filter id="filter0_d_1480_12522" x="26.9507" y="18.1641" width="124.031" height="106.547" filterUnits="userSpaceOnUse" color-interpolation-filters="sRGB">
<feFlood flood-opacity="0" result="BackgroundImageFix"/>
<feColorMatrix in="SourceAlpha" type="matrix" values="0 0 0 0 0 0 0 0 0 0 0 0 0 0 0 0 0 0 127 0" result="hardAlpha"/>
<feOffset dx="3" dy="2"/>
<feGaussianBlur stdDeviation="4"/>
<feColorMatrix type="matrix" values="0 0 0 0 0.788091 0 0 0 0 0.75686 0 0 0 0 0.834937 0 0 0 1 0"/>
<feBlend mode="normal" in2="BackgroundImageFix" result="effect1_dropShadow_1480_12522"/>
<feBlend mode="normal" in="SourceGraphic" in2="effect1_dropShadow_1480_12522" result="shape"/>
</filter>
<linearGradient id="paint0_linear_1480_12522" x1="80.7843" y1="77.3244" x2="80.7843" y2="150.86" gradientUnits="userSpaceOnUse">
<stop stop-color="white"/>
<stop offset="1" stop-color="#F4F2FF"/>
</linearGradient>
<linearGradient id="paint1_linear_1480_12522" x1="996.497" y1="1891.23" x2="996.497" y2="14.6953" gradientUnits="userSpaceOnUse">
<stop stop-color="#9388C9"/>
<stop offset="1" stop-color="#5A5098"/>
</linearGradient>
<linearGradient id="paint2_linear_1480_12522" x1="5081.48" y1="1128.83" x2="4655.77" y2="-874.015" gradientUnits="userSpaceOnUse">
<stop stop-color="#9388C9"/>
<stop offset="1" stop-color="#5A5098"/>
</linearGradient>
<clipPath id="clip0_1480_12522">
<rect width="175" height="156.985" fill="white"/>
</clipPath>
</defs>
</svg>
