<svg width="54" height="42" viewBox="0 0 54 42" fill="none" xmlns="http://www.w3.org/2000/svg">
<path d="M44.3429 11.1278C41.8123 11.6339 40.0106 13.4521 38.182 14.6927C37.6281 15.0684 36.9636 15.2278 36.2943 15.2278L32.6286 15.2277C31.3347 15.2277 30.2858 16.2766 30.2858 17.5706C30.2858 18.8645 31.3347 19.9134 32.6286 19.9134L37.3302 19.9135C38.0936 19.9135 38.8499 19.7678 39.5586 19.4843L40.0429 19.2906C40.6998 19.0279 41.4143 19.5116 41.4143 20.2191V24.1849C41.4143 24.7372 40.9673 25.1866 40.4155 25.2074C39.7846 25.2312 38.9339 25.28 38.1013 25.3803C36.8513 25.5309 35.9086 26.4735 35.5105 27.668L32.7215 36.0348C32.3379 37.1855 32.9005 38.4381 34.0153 38.9159C35.1929 39.4206 36.5572 38.8809 37.0707 37.7071L39.506 32.1407C39.9582 31.1071 40.952 30.4146 42.0783 30.3484L46.4349 30.0921C48.5492 29.9677 50.2001 28.2169 50.2001 26.099V18.1563C50.2001 10.542 45.7213 10.8521 44.3429 11.1278Z" fill="#B5A7F9"/>
<path d="M47.8571 33.3867V41.001" stroke="#B5A7F9" stroke-width="1.5" stroke-linecap="round"/>
<path d="M53.1286 21.6719V27.3862C53.1286 30.6999 50.4423 33.3862 47.1286 33.3862H42" stroke="#B5A7F9" stroke-width="1.5" stroke-linecap="round"/>
<ellipse cx="45.5143" cy="4.68572" rx="4.68571" ry="4.68572" fill="#B5A7F9"/>
<path d="M9.78563 11.1278C12.3163 11.6339 14.118 13.4521 15.9466 14.6927C16.5004 15.0684 17.1649 15.2278 17.8342 15.2278L21.4999 15.2277C22.7938 15.2277 23.8428 16.2766 23.8428 17.5706C23.8428 18.8645 22.7939 19.9134 21.4999 19.9134L16.7983 19.9135C16.035 19.9135 15.2786 19.7678 14.5699 19.4843L14.0856 19.2906C13.4287 19.0279 12.7142 19.5116 12.7142 20.2191V24.1849C12.7142 24.7372 13.1612 25.1866 13.7131 25.2074C14.3439 25.2312 15.1946 25.28 16.0273 25.3803C17.2773 25.5309 18.2199 26.4735 18.6181 27.668L21.407 36.0348C21.7906 37.1855 21.2281 38.4381 20.1132 38.9159C18.9356 39.4206 17.5714 38.8809 17.0578 37.7071L14.6226 32.1407C14.1704 31.1071 13.1765 30.4146 12.0503 30.3484L7.6936 30.0921C5.57935 29.9677 3.92849 28.2169 3.92849 26.099V18.1563C3.92849 10.542 8.40722 10.8521 9.78563 11.1278Z" fill="#7355DA"/>
<path d="M6.27142 33.9707V40.9993" stroke="#7355DA" stroke-width="1.5" stroke-linecap="round"/>
<path d="M0.999971 22.2578V27.9721C0.999971 31.2858 3.68626 33.9721 6.99997 33.9721H12.1285" stroke="#7355DA" stroke-width="1.5" stroke-linecap="round"/>
<ellipse cx="4.68571" cy="4.68572" rx="4.68571" ry="4.68572" transform="matrix(-1 0 0 1 13.2999 0)" fill="#7355DA"/>
<path d="M26.7714 22.2578V38.6578" stroke="#7355DA" stroke-width="1.5" stroke-linecap="round"/>
<path d="M18.5714 22.2578H34.9713" stroke="#7355DA" stroke-width="1.5" stroke-linecap="round"/>
</svg>
