<svg width="48" height="44" viewBox="0 0 48 44" fill="none" xmlns="http://www.w3.org/2000/svg">
<path d="M3 1H45C46.1046 1 47 1.89543 47 3V33C47 34.1046 46.1046 35 45 35H3C1.89543 35 1 34.1046 1 33V3C1 1.89543 1.89543 1 3 1Z" fill="white" stroke="#B5A7F9" stroke-width="2"/>
<path d="M0 25.5H48V33C48 34.6569 46.6569 36 45 36H3C1.34315 36 0 34.6569 0 33V25.5Z" fill="#7355DA"/>
<path d="M15 41.25C15 40.0074 16.0074 39 17.25 39H30.75C31.9926 39 33 40.0074 33 41.25V41.25C33 42.4926 31.9926 43.5 30.75 43.5H17.25C16.0074 43.5 15 42.4926 15 41.25V41.25Z" fill="#7355DA"/>
</svg>
