<?xml version="1.0" encoding="UTF-8"?>
<svg width="108px" height="95px" viewBox="0 0 108 95" version="1.1" xmlns="http://www.w3.org/2000/svg" xmlns:xlink="http://www.w3.org/1999/xlink">
    <!-- Generator: Sketch 52.5 (67469) - http://www.bohemiancoding.com/sketch -->
    <title>Workspace Disabled</title>
    <desc>Created with Sketch.</desc>
    <g id="Page-1" stroke="none" stroke-width="1" fill="none" fill-rule="evenodd">
        <g id="Workspace-Disabled" transform="translate(-414.000000, -256.000000)" fill-rule="nonzero">
            <g transform="translate(414.000000, 256.000000)" id="Combined-Shape">
                <path d="M43,90 L60,90 L60,30 L60,3 C60,2.44771525 59.5522847,2 59,2 L3,2 C2.44771525,2 2,2.44771525 2,3 L2,89 C2,89.5522847 2.44771525,90 3,90 L19,90 L19,60 L43,60 L43,90 Z M62,30 L97,30 C98.6568542,30 100,31.3431458 100,33 L100,59.020888 C99.3509657,58.7125709 98.6836057,58.4365599 98,58.19494 L98,33 C98,32.4477153 97.5522847,32 97,32 L62,32 L62,90 L73.7640678,90 C74.2515612,90.6988926 74.7804763,91.3667455 75.3472544,92 L62,92 L3,92 C1.34314575,92 -1.42108547e-14,90.6568542 -1.42108547e-14,89 L-1.42108547e-14,3 C-1.42108547e-14,1.34314575 1.34314575,0 3,0 L59,0 C60.6568542,0 62,1.34314575 62,3 L62,30 Z M21,62 L21,90 L41,90 L41,62 L21,62 Z M37,14 L49,14 L49,26 L37,26 L37,14 Z M39,16 L39,24 L47,24 L47,16 L39,16 Z M74,43 L86,43 L86,55 L74,55 L74,43 Z M76,45 L76,53 L84,53 L84,45 L76,45 Z M37,36 L49,36 L49,48 L37,48 L37,36 Z M39,38 L39,46 L47,46 L47,38 L39,38 Z M13,14 L25,14 L25,26 L13,26 L13,14 Z M15,16 L15,24 L23,24 L23,16 L15,16 Z M13,36 L25,36 L25,48 L13,48 L13,36 Z M15,38 L15,46 L23,46 L23,38 L15,38 Z" fill="#B8B8B8"></path>
                <path d="M81.1290349,89.2947017 C83.7668857,91.6019331 87.2201749,93 91,93 C99.2842712,93 106,86.2842712 106,78 C106,74.2231231 104.604113,70.7722729 102.300099,68.1352088 L81.1290349,89.2947017 Z M79.7141888,87.8811204 L100.887287,66.7195948 C98.2473666,64.4038434 94.7876259,63 91,63 C82.7157288,63 76,69.7157288 76,78 C76,81.7846776 77.4016588,85.2419803 79.7141888,87.8811204 Z M91,95 C81.6111593,95 74,87.3888407 74,78 C74,68.6111593 81.6111593,61 91,61 C100.388841,61 108,68.6111593 108,78 C108,87.3888407 100.388841,95 91,95 Z" fill="#E47373"></path>
            </g>
        </g>
    </g>
</svg>